<?xml version="1.0" encoding="utf-8"?>
<!-- Generator: Adobe Illustrator 26.0.1, SVG Export Plug-In . SVG Version: 6.00 Build 0)  -->
<svg version="1.1" id="レイヤー_1" xmlns="http://www.w3.org/2000/svg" xmlns:xlink="http://www.w3.org/1999/xlink" x="0px"
	 y="0px" viewBox="0 0 500 500" style="enable-background:new 0 0 500 500;" xml:space="preserve">
<style type="text/css">
	.st0{fill:#555555;}
</style>
<g>
	<path class="st0" d="M270.034,38.107c0.096-0.099,0.193-0.195,0.284-0.3C270.203,37.885,270.109,37.985,270.034,38.107z"/>
	<path class="st0" d="M266.327,318.458c-2.962-4.443-7.487-7.409-12.742-8.353c-5.255-0.94-10.53,0.265-14.853,3.4l-2.78,2.018
		c-4.796,3.479-11.12,4.106-16.507,1.638l-19.36-8.873c-5.666-2.597-12.28-2.31-17.699,0.765l-2.768,1.572
		c-5.687,3.227-9.351,9.048-9.8,15.571l-0.547,7.932c-0.558,8.069,4.021,15.729,11.395,19.058c3.304,1.492,6.948,2.029,10.538,1.557
		l9.702-1.276c2.927-0.386,5.911,0.026,8.623,1.189l17.604,7.544c2.46,1.055,5.057,1.583,7.655,1.583
		c2.442-0.001,4.888-0.467,7.224-1.401l17.744-7.098c6.088-2.435,10.509-7.723,11.826-14.146l0.691-3.372
		c1.035-5.048-0.01-10.403-2.869-14.692L266.327,318.458z M269.334,337.162l-0.691,3.372c-1.113,5.433-4.853,9.904-10,11.964
		l-17.744,7.098c-4.08,1.631-8.548,1.575-12.584-0.154l-17.604-7.544c-2.427-1.04-5.035-1.572-7.662-1.572
		c-0.844,0-1.69,0.056-2.533,0.166l-9.703,1.276c-3.036,0.401-6.118-0.055-8.912-1.316c-6.234-2.815-10.107-9.292-9.637-16.116
		l0.547-7.932c0.381-5.518,3.479-10.44,8.289-13.169l2.768-1.572c4.581-2.601,10.176-2.842,14.968-0.647l19.36,8.873
		c6.367,2.918,13.848,2.179,19.519-1.937l2.78-2.018c3.655-2.652,8.114-3.671,12.561-2.875c4.444,0.798,8.271,3.306,10.776,7.063
		l3.077,4.615C269.326,328.365,270.21,332.894,269.334,337.162z"/>
	<path class="st0" d="M296.766,342.913l-3.48-0.092c-2.647-0.094-5.152,0.928-7.029,2.808c-1.876,1.881-2.867,4.38-2.791,7.035
		l0.229,8.047c0.022,0.827-0.106,1.64-0.386,2.415c-1.093,3.033-0.593,6.386,1.335,8.97c1.817,2.435,4.651,3.847,7.665,3.847
		c0.184,0,0.368-0.006,0.553-0.016l1.533-0.088c3.249-0.186,6.152-1.983,7.766-4.808l2.907-5.09
		c0.873-1.525,1.308-3.261,1.258-5.016l-0.241-8.709C305.943,347.133,301.85,343.046,296.766,342.913z M302.463,364.453l-2.908,5.09
		c-1.107,1.939-3.101,3.174-5.331,3.301l-1.533,0.088c-2.237,0.112-4.3-0.831-5.643-2.631c-1.344-1.8-1.678-4.045-0.917-6.159
		c0.406-1.129,0.596-2.312,0.562-3.516l-0.229-8.048c-0.052-1.823,0.629-3.538,1.917-4.83c1.246-1.249,2.891-1.931,4.647-1.931
		c0.06,0,0.119,0.001,0.18,0.002l3.48,0.092c3.49,0.092,6.301,2.898,6.398,6.39l0.241,8.71
		C303.361,362.215,303.062,363.405,302.463,364.453z"/>
	<path class="st0" d="M254.435,182.202l4.681,1.927c0.898,0.371,1.85,0.556,2.803,0.556c0.836,0,1.672-0.143,2.475-0.43l0.712-0.254
		c3.591-1.283,5.624-5.171,4.628-8.852l-0.571-2.116c-0.938-3.459-4.207-5.74-7.775-5.407l-4.818,0.441
		c-3.992,0.365-6.982,3.913-6.666,7.91C250.122,178.756,251.859,181.141,254.435,182.202z M256.841,171.055l4.818-0.441
		c0.135-0.012,0.27-0.018,0.402-0.018c1.953,0,3.684,1.303,4.203,3.221l0.571,2.115v0.001c0.591,2.18-0.613,4.484-2.74,5.243
		l-0.712,0.254c-1.018,0.364-2.127,0.337-3.126-0.075l-4.681-1.927c-1.525-0.628-2.555-2.042-2.686-3.687
		C252.705,173.373,254.476,171.271,256.841,171.055z"/>
	<path class="st0" d="M210.351,221.226c0.245,0,0.493-0.015,0.741-0.044l14.543-1.727c0.428-0.051,0.852-0.147,1.261-0.287
		l19.055-6.506c1.437-0.491,2.636-1.491,3.378-2.816l5.801-10.382c0.978-1.749,1.051-3.793,0.199-5.607
		c-0.851-1.814-2.469-3.065-4.438-3.431l-12.51-2.328c-2.664-0.496-5.302,0.783-6.563,3.183l-7.013,13.349
		c-0.438,0.835-1.22,1.424-2.143,1.616l-13.546,2.819c-2.475,0.515-4.408,2.538-4.812,5.034c-0.312,1.921,0.283,3.829,1.63,5.234
		C207.105,220.556,208.685,221.226,210.351,221.226z M207.264,214.578c0.207-1.277,1.196-2.312,2.463-2.576l13.546-2.819
		c1.804-0.375,3.33-1.526,4.188-3.158l7.013-13.349c0.553-1.052,1.622-1.684,2.774-1.684c0.193,0,0.389,0.018,0.584,0.054
		l12.51,2.328c1.008,0.188,1.836,0.828,2.271,1.756s0.398,1.974-0.103,2.87l-5.801,10.381c-0.38,0.678-0.993,1.19-1.729,1.441
		l-19.053,6.506c-0.211,0.072-0.428,0.121-0.646,0.147l-14.543,1.727c-0.983,0.121-1.951-0.227-2.641-0.946
		C207.409,216.537,207.104,215.561,207.264,214.578z"/>
	<path class="st0" d="M196.479,244.314l1.008,0.756c0.867,0.65,1.907,0.991,2.967,0.991c0.381,0,0.764-0.044,1.143-0.133
		c1.433-0.338,2.633-1.287,3.291-2.604l0.888-1.777c0.343-0.683,0.523-1.449,0.523-2.216v-5.755c0-1.937-1.139-3.706-2.901-4.507
		c-1.317-0.599-2.826-0.592-4.14,0.019c-1.312,0.611-2.288,1.76-2.678,3.154l-1.897,6.777
		C194.128,241,194.833,243.08,196.479,244.314z M197.571,239.827l1.897-6.777c0.156-0.557,0.531-0.998,1.056-1.242
		c0.265-0.124,0.544-0.186,0.823-0.186c0.273,0,0.547,0.06,0.808,0.178c0.694,0.316,1.144,1.013,1.144,1.776v5.755
		c0,0.302-0.071,0.604-0.206,0.873l-0.889,1.778c-0.259,0.519-0.732,0.893-1.297,1.026c-0.565,0.131-1.156,0.009-1.619-0.338
		l-1.009-0.756C197.631,241.428,197.353,240.608,197.571,239.827z"/>
	<path class="st0" d="M495.421,225.987c-0.044-0.03-0.091-0.056-0.139-0.078c-2.126-0.977-4.55-1.219-6.825-0.682
		c-0.181,0.043-0.326,0.143-0.45,0.263c-0.194-0.017-0.383-0.044-0.58-0.055c-2.631-0.148-5.152,0.549-7.109,1.963
		c-0.79,0.57-1.447,1.232-1.968,1.959c-0.158-0.193-0.386-0.329-0.653-0.361l-0.632-0.074c-1.006-3.452-2.888-5.302-5.768-5.654
		l-31.653-2.961l-29.146-8.035c-5.749-29.732-19.829-56.529-39.721-77.847l9.091-9.091c14.035,11.462,28.864,9.037,45.289-7.386
		c20.811-20.811,24.062-51.339,15.161-60.239c-4.312-4.313-14.414-5.618-25.739-3.328c-7.496,1.516-21.945,5.934-34.5,18.489
		c-16.424,16.423-18.849,31.252-7.387,45.289l-9.067,9.067c-2.09-1.973-4.236-3.887-6.431-5.745
		c-0.082-0.07-0.164-0.139-0.247-0.209c-0.906-0.764-1.821-1.516-2.744-2.26c-0.142-0.114-0.287-0.225-0.429-0.339
		c-0.795-0.636-1.594-1.266-2.401-1.887c-0.121-0.093-0.243-0.183-0.364-0.275c-0.849-0.649-1.704-1.291-2.566-1.923
		c-0.056-0.041-0.112-0.081-0.168-0.121c-17.229-12.601-37.084-21.814-58.578-26.644V75.61c0-0.005-0.003-0.009-0.003-0.014
		s0.003-0.009,0.003-0.014v-6.379c0-0.009-0.005-0.016-0.005-0.024c-0.003-0.111-0.02-0.223-0.061-0.331
		c-0.002-0.006-0.007-0.011-0.01-0.017c-0.011-0.028-0.03-0.05-0.043-0.076c-0.041-0.08-0.088-0.153-0.147-0.218
		c-0.026-0.029-0.055-0.053-0.084-0.079c-0.062-0.054-0.128-0.098-0.201-0.135c-0.033-0.017-0.064-0.035-0.099-0.048
		c-0.111-0.042-0.227-0.071-0.351-0.071h-8.524c2.143-2.17,2.523-4.969,2.536-5.069c0.078-0.533,1.895-13.104-0.233-17.737
		c-1.38-3.003-7.271-5.942-9.963-7.157c0.962-1.374,1.659-3.032,1.979-4.881c0.265-0.291,0.512-0.599,0.719-0.935
		c0.415-0.676,0.636-1.343,0.656-1.979c0.023-0.667-0.176-1.299-0.547-1.788c0.158-0.211,0.289-0.443,0.353-0.702
		c0.239-0.141,0.619-0.425,0.7-0.964c0.077-0.505-0.239-0.986-0.733-1.117c-0.068-0.019-0.19-0.124-0.296-0.314
		c-0.102-0.182-0.183-0.412-0.269-0.654c-0.043-0.123-0.087-0.246-0.134-0.368c-0.851-2.203-2.795-4.025-5.477-5.129
		c-1.653-0.683-3.398-1.023-5.035-0.967c-1.836,0.056-3.565,0.579-4.949,1.481c-2.895,1.642-3.137,3.692-3.371,5.675
		c-0.111,0.942-0.226,1.917-0.665,3.016l-0.374,1.25c-0.097,0.323-0.023,0.674,0.194,0.932c0.187,0.222,0.46,0.34,0.745,0.347
		c0.009,2.721,0.844,5.212,2.216,7.143c-1.993,0.465-4.506,1.312-5.787,2.786c-0.946,1.088-2.573,3.696-4.295,6.457
		c-0.938,1.504-1.994,3.195-2.904,4.566h-9.957c-1.46,0-2.647,1.188-2.647,2.647v13.464h-1.323c-0.247,0-0.484,0.091-0.668,0.256
		l-19.671,17.666c-0.007,0.006-0.009,0.015-0.016,0.021c-0.055,0.052-0.093,0.118-0.135,0.181c-0.03,0.046-0.069,0.086-0.091,0.136
		c-0.022,0.05-0.026,0.107-0.04,0.161c-0.019,0.073-0.042,0.144-0.044,0.22c0,0.009-0.005,0.017-0.005,0.026v3.346
		c-27.924,8.103-53.559,23.982-73.274,45.616c-23.193,25.449-37.212,56.914-40.588,91.044l-11.694,2.296l-18.378-0.875
		c-0.656-0.732-1.598-1.201-2.656-1.201c-0.055,0-0.109,0.004-0.163,0.013l-13.332,2.202c-1.504-0.361-10.515-2.451-15.293-1.896
		c-2.377,0.27-4.224,0.706-6.078,2.045c-1.147,0.817-2.676,2.035-3.423,3.574l-1.844,0.179c0,0,0,0-0.001,0l-1.253,0.117
		c-1.648-1.801-3.913-3.218-6.512-3.946c0.1-0.286,0.072-0.603-0.092-0.863c-0.184-0.29-0.502-0.465-0.845-0.465h-3.89
		C4.869,228.055,0,233.083,0,239.75c0,3.52,1.783,6.633,4.888,8.576c0.07,0.066,0.14,0.133,0.232,0.178
		c0.422,0.207,0.891,0.312,1.386,0.312c0.266,0,0.539-0.036,0.817-0.096c0.111,0.148,0.248,0.278,0.434,0.348l1.419,0.528
		c1.341,0.381,2.752,0.574,4.196,0.574c4.67,0,8.475-1.901,10.503-4.906c0.025,0.013,0.048,0.03,0.074,0.041
		c0.018,0.008,0.033,0.022,0.052,0.028l4.078,1.43c1.193,1.286,4.58,2.787,6.476,3.173l3.867,0.625
		c0.014,0.002,0.028,0.002,0.042,0.003c0.557,0.092,1.814,0.248,1.814,0.248l0.478,0.056c0,0,12.715,0.932,17.328,0.932h1.853
		l8.577,1.526v1.165c0,1.784,1.451,3.235,3.235,3.235h13.41c1.056,0,1.986-0.516,2.577-1.3c1.319,0.146,2.638,0.28,3.953,0.389
		l5.558,0.459c2.578,27.562,12.247,53.095,27.157,74.754c-0.191,0.139-0.382,0.28-0.554,0.452l-70.291,70.29
		c-1.781,1.781-1.781,4.68,0,6.461l36.447,36.446c0.891,0.891,2.061,1.336,3.229,1.336c1.17,0,2.34-0.445,3.23-1.336l70.291-70.29
		c0.294-0.294,0.522-0.626,0.719-0.972c16.733,11.129,35.694,19.159,56.057,23.277c-2.519,3.169-4.036,7.169-4.036,11.522
		c0,7.845,4.901,14.554,11.796,17.266c1.387,0.545,2.853,0.927,4.378,1.124v7.506v9.225h-2.593h-7.106h-0.742
		c-1.372,0-2.488,1.116-2.488,2.489c0,1.373,1.116,2.489,2.488,2.489h7.849h5.082c0.566,0,1.083-0.197,1.501-0.517
		c0.036,0.453,0.078,0.907,0.13,1.356c0.214,1.863,0.579,3.416,1.67,4.936c0.648,0.903,1.605,2.1,2.815,2.73l0.238,2.5
		c-1.433,1.509-2.557,3.437-3.186,5.601c-0.183-0.009-0.368,0.028-0.532,0.119c-0.298,0.165-0.49,0.469-0.514,0.809l-0.25,3.773
		c0,6.237,4.853,10.941,11.287,10.941c4.447,0,8.122-2.9,9.59-7.568l0.125-0.396c0.016-0.05,0.027-0.101,0.035-0.152
		c0.072-0.481,0.047-0.958-0.069-1.422c0.253-1.081,0.388-2.21,0.388-3.373c0-4.984-2.366-9.049-5.904-10.776l0.187-2.018
		c1.05-1.104,2.15-3.664,2.424-5.041l2.186-8.339h2.218c2.74,0,4.97-2.229,4.97-4.97c0-0.958-0.777-1.737-1.734-1.744
		c0.057-0.209,0.098-0.425,0.098-0.653v-5.399c0.101,0.001,0.202,0.005,0.303,0.005c2.845,0,5.668-0.397,8.407-1.187
		c0.93-0.269,1.895-0.613,2.65-1.32c1.392-1.304,1.556-3.316,1.665-4.648l1.321-16.214c1.093-0.321,2.208-0.578,3.338-0.723
		l0.172-0.022c0.752-0.095,1.604-0.201,2.369-0.691c0.729-0.467,1.272-1.348,1.257-2.248c0.24-0.146,0.426-0.379,0.476-0.678
		l0.574-3.427c0.044-0.262-0.019-0.529-0.172-0.746c-0.142-0.199-0.355-0.328-0.592-0.383c19.3-4.06,37.325-11.622,53.355-22.022
		c35.495-23.027,61.222-59.87,69.539-102.846c0-0.001,0.001-0.001,0.001-0.002c3.839-1.646,7.768-3.389,11.069-6.183
		c0.188-0.159,0.29-0.375,0.328-0.601c0.297,0.472,0.664,0.867,1.064,1.218c-1.168,0.06-2.283,0.853-2.766,2.013
		c-0.451,1.079-0.35,2.411,0.27,3.562c0.083,0.154,0.204,0.274,0.341,0.362c0.059,0.209,0.172,0.404,0.362,0.541
		c0.177,0.128,0.382,0.189,0.584,0.189c0.311,0,0.616-0.144,0.812-0.415c0.807-1.117,1.679-2.201,2.591-3.228
		c0.085,0.036,0.17,0.069,0.255,0.095c0.028,0.282,0.163,0.551,0.414,0.725c0.602,0.415,1.319,0.649,2.048,0.691
		c0.067,0.174,0.136,0.347,0.223,0.517c0.15,0.293,0.435,0.493,0.761,0.536c0.043,0.006,0.087,0.009,0.13,0.009
		c0.281,0,0.552-0.118,0.742-0.33c0.302-0.334,0.676-0.606,1.083-0.787c0.045-0.02,0.075-0.057,0.116-0.082
		c0.198,0.015,0.397,0.024,0.598,0.024c1.678,0,3.427-0.543,4.884-1.529c2.225-1.506,2.73-5.186,2.81-5.907
		c0.354-3.239-1.249-6.329-4.28-8.349c-0.276-0.561-0.401-1.21-0.352-1.831c0.024-0.313-0.108-0.592-0.319-0.793
		c-0.038-0.052-0.063-0.11-0.112-0.155c-0.405-0.375-1.038-0.352-1.413,0.056c-0.179,0.193-0.347,0.393-0.512,0.593
		c-0.161-0.132-0.353-0.229-0.576-0.24c-0.832-0.039-2.276-0.102-3.355,0.687c-0.872-0.101-1.826-0.188-2.787-0.07
		c-0.073,0.009-0.139,0.031-0.211,0.042c-0.157-0.693-0.287-1.392-0.36-2.092c-0.078-0.791-0.632-1.151-1.123-1.177l0.579-0.56
		c0.865,0.333,1.792,0.511,2.721,0.511c0.776,0,1.553-0.118,2.29-0.354c0.281-0.091,0.487-0.298,0.598-0.548h0.001
		c0.295,0,0.599-0.022,0.905-0.075c1.159-0.2,2.13-0.823,2.663-1.711c0.048-0.08,0.092-0.162,0.136-0.244
		c0.041-0.078,0.098-0.184,0.123-0.211c0.052-0.055,0.297-0.143,0.414-0.186c0.116-0.042,0.215-0.108,0.303-0.183
		c0.24,0.41,0.417,0.701,0.436,0.733c0.184,0.3,0.508,0.479,0.854,0.479c0.042,0,0.085-0.003,0.129-0.008l36.114-4.677
		c0.093-0.012,0.174-0.052,0.257-0.087c0.085,0.052,0.166,0.109,0.253,0.158c1.235,0.695,2.638,1.025,4.048,1.025
		c2.61,0,5.232-1.141,6.876-3.17c0.386,0.537,0.856,1.011,1.402,1.385c0.592,0.407,1.188,0.639,1.772,0.692
		c0.084,0.007,0.168,0.011,0.251,0.011c0.445,0,0.865-0.118,1.233-0.317c0.401,0.112,0.96,0.206,1.784,0.252
		c0.21,0.012,0.417,0.018,0.622,0.018c3.919,0,6.851-2.162,8.718-6.434C501.585,231.91,497.763,227.557,495.421,225.987z
		 M7.62,242.77c0.298,0.138,0.602,0.259,0.909,0.363c-0.434,0.402-0.906,0.769-1.413,1.098c-0.247,0.16-0.411,0.421-0.448,0.713
		c-0.037,0.292,0.057,0.585,0.256,0.802c0.236,0.257,0.496,0.492,0.772,0.702c-0.12,0.07-0.24,0.133-0.361,0.185
		c-0.127,0.051-0.253,0.093-0.383,0.125c-0.332,0.081-0.634,0.063-0.875-0.031c-0.009-0.006-0.013-0.015-0.022-0.02
		C3.44,245.119,2,242.648,2,239.75c0-4.818,3.203-9.695,9.325-9.695h1.527c-0.323,0.093-0.63,0.22-0.899,0.401
		c-1.059,0.731-1.55,2.202-1.195,3.568c0.21,0.841,0.685,1.628,1.374,2.301c0.079,0.085,0.164,0.163,0.247,0.243
		c-0.125,0.138-0.211,0.306-0.244,0.493c-0.292-0.178-0.593-0.342-0.912-0.472c-0.512-0.21-1.095,0.037-1.304,0.548
		s0.037,1.095,0.548,1.303c0.21,0.085,0.412,0.187,0.604,0.303c-0.934,0.974-2.253,1.647-3.457,2.214
		c-0.352,0.165-0.575,0.519-0.574,0.908C7.041,242.254,7.268,242.606,7.62,242.77z M22.913,242.817
		c-1.323,3.217-4.928,5.354-9.542,5.354c-1.259,0-2.487-0.167-3.571-0.473l-0.264-0.099c0.226-0.175,0.442-0.35,0.634-0.512
		c0.273-0.229,0.403-0.587,0.341-0.939s-0.307-0.644-0.642-0.766c-0.197-0.072-0.39-0.162-0.573-0.268
		c0.716-0.582,1.356-1.237,1.915-1.958c0.22-0.284,0.271-0.665,0.132-0.998c-0.118-0.283-0.357-0.493-0.646-0.576
		c1.006-0.633,1.944-1.418,2.63-2.472c0.183-0.282,0.198-0.623,0.078-0.919c0.793-0.138,1.586-0.377,2.358-0.727
		c0.339-0.154,0.564-0.483,0.585-0.854c0.021-0.372-0.166-0.724-0.485-0.915c-0.808-0.483-1.673-0.834-2.569-1.061
		c-0.3-0.356-0.503-0.725-0.597-1.103c-0.143-0.551,0.031-1.179,0.385-1.424c0.242-0.163,0.602-0.229,0.999-0.191
		c0.045,0.006,0.095,0.009,0.193,0.032c0.989,0.184,1.869,1.024,2.09,1.999c0.122,0.538,0.658,0.875,1.197,0.753
		c0.538-0.123,0.876-0.658,0.754-1.197c-0.11-0.483-0.305-0.935-0.558-1.35c1.191,0.594,2.243,1.366,3.119,2.246
		c1.604,1.61,2.593,3.596,2.593,5.618C23.468,241.017,23.268,241.954,22.913,242.817z M232.077,447.315h-6.849
		c-0.27,0-0.488-0.22-0.488-0.489c0-0.269,0.219-0.489,0.488-0.489h0.146h6.702v0.489h0.001V447.315z M478.448,237.91
		c0.164,0.226,0.339,0.446,0.528,0.659c-0.767,0.326-1.651,0.292-2.423,0.133c0.032-0.116,0.081-0.227,0.106-0.346l0.987-0.005
		C477.984,238.35,478.268,238.169,478.448,237.91z M304.116,95.164c0.306,0,0.615,0.049,0.918,0.152
		c13.419,4.582,25.898,10.876,37.231,18.585c0.064,0.044,0.128,0.088,0.192,0.131c1.037,0.708,2.063,1.428,3.081,2.159
		c0.17,0.122,0.339,0.246,0.508,0.37c0.934,0.677,1.861,1.362,2.778,2.059c0.233,0.177,0.463,0.357,0.695,0.536
		c0.867,0.666,1.729,1.337,2.581,2.02c0.245,0.196,0.485,0.398,0.728,0.595c0.846,0.687,1.688,1.377,2.518,2.081
		c0.159,0.135,0.315,0.274,0.474,0.41c1.935,1.654,3.831,3.348,5.678,5.091c0.728,0.687,1.449,1.38,2.163,2.08l0.004-0.004
		l2.118-2.118l0.002-0.002l10.992-10.992l-0.918-1.056c-11.4-13.112-9.386-26.544,6.341-42.27
		c11.998-11.998,25.81-16.22,32.974-17.669c10.205-2.063,19.46-1.056,23.023,2.508c6.989,6.989,5.393,35.442-15.161,55.997
		c-15.726,15.723-29.158,17.741-42.271,6.34l-1.056-0.918l-11,11l-0.006,0.006l-2.114,2.114l-0.007,0.007
		c0.696,0.719,1.384,1.445,2.065,2.177c19.418,20.869,32.966,46.909,38.693,75.394c-0.053,0.055-0.108,0.108-0.149,0.176
		c-0.109,0.182-2.568,4.417-3.68,12.807l-4.549-0.868l-3.126-3.909c-3.052-4.51-3.571-4.78-3.786-4.891
		c-0.46-0.24-0.994-0.183-1.398,0.151c-0.845,0.699-0.875,2.415-0.466,3.753c0.438,1.404,1.606,4.526,2.271,5.483
		c0.087,0.164,0.12,0.758,0.142,1.15c0.059,1.042,0.124,2.224,0.938,2.958c0.425,0.375,0.98,0.513,1.569,0.513
		c0.909,0,1.884-0.329,2.592-0.628c0.046-0.003,0.092,0.011,0.138,0.002l5.208,1.668c-0.018,0.431-0.03,0.856-0.036,1.278
		l-5.343,1.952c-0.589-0.028-2.31-0.104-3.612-0.089c-0.206,0.003-0.382,0.007-0.545,0.013c-6.492-2.363-6.824-1.816-7.257-1.055
		c-0.463,0.821-0.396,2.028,3.602,4.751c0.796,0.543,1.323,0.766,1.747,0.946c0.421,0.179,0.7,0.297,1.211,0.727
		c0.43,0.364,0.587,0.588,0.74,0.805c0.299,0.425,0.591,0.781,1.378,1.164c0.275,0.137,0.542,0.197,0.802,0.197
		c1.541,0,2.771-2.129,3.154-2.872c0.066-0.128,0.101-0.264,0.113-0.4l4.232-0.342c0.639,6.899,2.42,11.112,2.499,11.295
		c0.16,0.373,0.525,0.604,0.918,0.604c0.068,0,0.138-0.007,0.206-0.021l3.411-0.72c-0.018,0.441-0.03,0.883-0.05,1.324
		c-0.012,0.26-0.023,0.521-0.036,0.781c-0.063,1.196-0.153,2.385-0.242,3.573c-0.252-0.016-0.505-0.042-0.757-0.055
		c-0.017-0.001-0.031,0.007-0.047,0.007c-1.432-0.747-2.919-1.412-4.437-1.959c-0.503-0.182-1.098-0.361-1.752-0.179
		c-0.858,0.238-1.321,0.952-1.629,1.546c-0.458,0.885-0.806,1.817-1.066,2.772c-1.678,0.419-3.214,1.413-4.282,2.771
		c-2.383-0.195-4.767-0.414-7.135-0.671c-0.027-0.098-0.055-0.186-0.079-0.25l-0.947-2.63c-0.034-0.095-0.125-0.345-0.372-0.553
		c-0.324-0.269-0.765-0.338-1.15-0.179c-0.509,0.21-0.779,0.749-0.821,1.19l-0.34,3.63c-0.033,0.366-0.084,0.919,0.198,1.461
		c0.218,0.418,0.621,0.731,1.079,0.839c0.112,0.026,0.226,0.039,0.339,0.039c0.238,0,0.463-0.074,0.669-0.186
		c1.391,0.467,2.903,0.966,4.462,1.477l-1.147,1.328c-0.231,0.268-0.544,0.637-0.777,1.091c-1.035,0.447-2.003,1.068-2.851,1.815
		c-1.179-1.169-2.573-2.14-4.147-2.839l-2.395-1.064c-4.874-2.166-7.561-7.333-6.535-12.566l1.713-8.735
		c1.03-5.253-0.677-10.585-4.564-14.264l-9.22-8.721c-3.008-2.845-6.927-4.688-11.037-5.188l-10.301-1.256
		c-2.867-0.35-5.489-1.745-7.382-3.929c-1.817-2.097-2.506-4.957-1.843-7.65l6.905-28.051c0.111-0.456,0.168-0.924,0.168-1.394
		v-0.317c0-11.623-5.71-22.504-15.273-29.108l-2.634-1.818c-3.102-2.141-6.52-3.723-10.16-4.699l-11.387-3.055
		c-2.419-0.649-4.43-2.421-5.378-4.739c-1.667-4.074-1.64-8.735,0.073-12.789l7.795-18.449
		C301.942,95.822,303,95.164,304.116,95.164z M396.58,235.498c0.678,0.025,1.175,0.051,1.185,0.051
		c0.134,0.008,0.27-0.013,0.396-0.059l4.857-1.775c0.013,0.565,0.036,1.122,0.068,1.677l-5.634,0.455
		C397.165,235.734,396.872,235.617,396.58,235.498z M396.647,237.679c-0.317,0.496-0.684,0.946-0.915,1.106
		c-0.221-0.119-0.269-0.188-0.413-0.392c-0.197-0.281-0.47-0.667-1.113-1.212c-0.763-0.641-1.272-0.856-1.763-1.065
		c-0.388-0.164-0.753-0.319-1.373-0.742c-0.444-0.303-0.839-0.59-1.182-0.857c0.522,0.163,1.124,0.362,1.785,0.591
		C391.919,235.591,392.886,236.205,396.647,237.679z M403.284,226.922c-0.042,0.435-0.082,0.876-0.116,1.329l-5.152-1.65
		c-0.016-0.005-0.031-0.01-0.047-0.014c-0.102-0.15-0.247-0.383-0.444-0.735c-0.146-0.257-0.284-0.565-0.413-0.903l0.521,0.651
		c0.149,0.186,0.359,0.313,0.594,0.358L403.284,226.922z M395.955,227.133c-0.563,0.15-0.971,0.18-1.087,0.129
		c-0.194-0.175-0.247-1.12-0.272-1.575c-0.046-0.824-0.089-1.603-0.49-2.172c-0.435-0.627-1.501-3.319-2.009-4.941
		c-0.042-0.138-0.074-0.271-0.099-0.397c0.609,0.821,1.388,1.927,2.086,2.954c0.146,0.871,0.715,3.964,1.697,5.701
		C395.843,226.943,395.899,227.038,395.955,227.133z M418.645,257.245c-0.211,0.391-0.335,0.841-0.346,1.312
		c-0.011,0.483,0.328,0.875,0.78,0.98c-0.228,0.244-0.323,0.593-0.252,0.922c-0.604,0.96-0.765,2.149-0.471,3.243
		c-2.224,0.201-4.41,0.637-6.553,1.126c-0.474,0.108-0.948,0.216-1.417,0.328c-0.251-0.397-0.452-0.826-0.581-1.277
		c-0.111-0.387-0.439-0.646-0.812-0.705c-0.139-0.022-0.283-0.021-0.426,0.018c-0.53,0.152-0.838,0.706-0.687,1.237
		c0.161,0.563,0.406,1.099,0.704,1.604c0.011,0.018,0.018,0.038,0.029,0.056c-0.016,0.014-0.03,0.03-0.045,0.044
		c-0.995,0.905-1.936,1.872-2.825,2.884c-1.089-0.98-1.982-2.154-2.652-3.445c-0.122-0.236-0.237-0.474-0.344-0.718
		c-0.342-0.782-0.61-1.597-0.779-2.44c-0.534-2.679-0.138-5.488,1.117-7.912c0.254-0.489,0.377-0.536,0.39-0.539
		c0.064-0.018,0.244,0.027,0.538,0.133c1.533,0.554,3.04,1.224,4.479,1.991c0.213,0.114,0.448,0.13,0.669,0.084
		c0.204,0.011,0.408,0.03,0.611,0.042c0.997,0.061,1.994,0.144,2.99,0.243C414.733,256.654,416.698,256.913,418.645,257.245z
		 M412.924,254.465c0.092-1.21,0.183-2.42,0.247-3.638c0.014-0.282,0.027-0.565,0.039-0.848c0.033-0.689,0.055-1.381,0.079-2.072
		l9.716-2.051c-0.052,0.086-0.096,0.181-0.143,0.273c-0.135,0.009-0.27,0.039-0.397,0.106l-3.124,1.641
		c-0.525,0.276-1.121,0.588-1.65,1.041c-0.854,0.732-1.49,1.809-1.841,3.113c-0.244,0.91-0.331,1.822-0.392,2.715
		C414.615,254.637,413.769,254.549,412.924,254.465z M394.971,262.207c-1.682-0.55-3.354-1.097-4.937-1.621
		c3.25,0.336,6.522,0.629,9.762,0.846c0.005,0,0.011,0,0.016,0c0.045,0.46,0.106,0.92,0.197,1.375
		c0.077,0.388,0.173,0.77,0.283,1.148C398.599,263.394,396.789,262.802,394.971,262.207z M395.522,264.492
		c-1.1,0.679-2.187,1.393-3.238,2.169c-0.234,0.172-0.472,0.344-0.687,0.445c0.008-0.057,0.03-0.109,0.028-0.168
		c-0.01-0.293,0.376-0.739,0.607-1.007l1.694-1.961c0.141,0.046,0.281,0.092,0.423,0.138
		C394.741,264.237,395.132,264.364,395.522,264.492z M398.61,259.333c0.379-0.287,0.781-0.541,1.216-0.73
		c-0.028,0.273-0.055,0.545-0.068,0.819C399.378,259.397,398.993,259.36,398.61,259.333z M389.809,268.589
		c-0.353,0.065-0.708,0.12-1.067,0.152c0.243-0.194,0.505-0.363,0.767-0.53C389.592,268.346,389.69,268.474,389.809,268.589z
		 M276.13,85.399l-2.99,2.654l-3.347,2.97v-3.311v-0.394l2.668-2.368l15.236-13.522v3.705L276.13,85.399z M287.697,77.807v9.584
		v2.827l-0.229,0.212l-3.097,2.862c0,0,0,0,0,0.001l-12.439,10.946l-1.969,1.819V93.736l3.326-3.074
		c0.059-0.055,0.093-0.124,0.135-0.188l2.34-2.077l2.961-2.628L287.697,77.807z M257.775,27.853c0.167-0.719,0.247-1.396,0.32-2.021
		c0.216-1.823,0.357-3.027,2.423-4.201c1.129-0.733,2.502-1.145,3.972-1.19c1.359-0.038,2.817,0.241,4.213,0.817
		c2.138,0.88,3.731,2.339,4.372,4l0.114,0.313c0.104,0.296,0.223,0.632,0.405,0.96c0.084,0.152,0.179,0.293,0.28,0.422
		c-0.102,0.208-0.126,0.4-0.128,0.514c-0.14,0.037-0.263,0.104-0.369,0.189c-0.036-0.004-0.065-0.018-0.102-0.021
		c-0.718-0.058-1.383,0.096-1.912,0.432c-0.52,0.329-0.914,0.847-1.164,1.49c-0.047-0.133-0.09-0.28-0.122-0.411
		c-0.089-0.353-0.361-0.63-0.712-0.724c-0.355-0.096-0.727,0.01-0.979,0.271c-0.722,0.749-1.921,1.043-2.92,0.722l-0.178-0.062
		c-0.343-0.121-0.816-0.284-1.353-0.209c-0.297,0.042-0.535,0.145-0.728,0.227l-0.095,0.04c-1.471,0.606-3.167-0.151-4.168-1.136
		c-0.203-0.331-0.567-0.515-0.972-0.469C257.906,27.815,257.84,27.831,257.775,27.853z M258.008,31.094
		c0-0.214,0.017-0.421,0.025-0.631c0.073-0.052,0.153-0.097,0.219-0.154c1.515,1.131,3.634,1.773,5.625,0.953l0.124-0.052
		c0.075-0.032,0.179-0.077,0.214-0.083c0.064,0.008,0.274,0.068,0.411,0.116l0.226,0.077c0.542,0.176,1.112,0.228,1.677,0.203
		c0.75-0.033,1.491-0.217,2.15-0.572c0.07,0.098,0.151,0.193,0.242,0.284c0.263,0.259,0.607,0.437,0.969,0.513
		c0.061,0.208,0.194,0.378,0.365,0.507c0.146,0.11,0.313,0.195,0.508,0.211c0.127,0.012,0.248-0.007,0.362-0.039
		c0.098-0.028,0.184-0.078,0.267-0.134c0.246-0.165,0.423-0.426,0.448-0.743c0.032-0.406,0.065-0.827,0.183-1.179
		c0.093-0.282,0.242-0.505,0.411-0.612c0.162-0.103,0.413-0.144,0.695-0.127c0.229,0.017,0.414,0.072,0.521,0.156
		c0.139,0.107,0.226,0.344,0.218,0.591c-0.01,0.288-0.132,0.625-0.362,1.001c-0.31,0.503-0.724,0.935-1.208,1.277
		c-0.128,0.091-0.259,0.179-0.397,0.255c-0.025,0.014-0.039,0.037-0.062,0.053c-0.428,0.287-0.581,0.849-0.326,1.308
		c0.128,0.23,0.335,0.385,0.567,0.46c-0.412,1.184-1.021,2.224-1.764,3.078c-0.091,0.105-0.188,0.2-0.284,0.3
		c-1.28,1.328-2.913,2.128-4.683,2.128c-1.197,0-2.326-0.366-3.325-1.002c-0.579-0.368-1.111-0.829-1.589-1.367
		C258.949,36.192,258.008,33.78,258.008,31.094z M249.84,48.585c1.605-2.573,3.266-5.234,4.108-6.204
		c1.083-1.247,3.871-2.008,5.821-2.375c1.559,1.393,3.488,2.229,5.581,2.229c2.18,0,4.2-0.895,5.802-2.409
		c2.79,1.221,8.434,4.074,9.506,6.407c1.562,3.399,0.582,13.144,0.07,16.627c-0.004,0.023-0.328,2.316-2.033,3.998
		c-0.789,0.779-1.423,1.127-2.262,1.346c-0.549,0.143-1.184,0.233-2.016,0.345c-0.627,0.085-1.335,0.181-2.158,0.325
		c-0.618,0.108-1.76,0.259-3.185,0.433v-1.103V63.89l3.516-0.568c0.546-0.088,0.916-0.602,0.828-1.147
		c-0.036-0.224-0.156-0.408-0.309-0.553c0.225,0.047,0.471,0.136,0.716,0.237c0.509,0.209,1.096-0.035,1.305-0.545
		c0.21-0.511-0.034-1.095-0.545-1.305c-0.139-0.057-0.293-0.117-0.454-0.176l1.066-8.058c0.072-0.547-0.312-1.05-0.86-1.122
		c-0.55-0.074-1.05,0.313-1.122,0.86l-1.084,8.195c-0.391,0.123-0.738,0.329-0.992,0.624c-0.344,0.402-0.463,0.861-0.55,1.197
		l-0.025,0.095l-1.49,0.241V54.74c0-1.459-1.188-2.647-2.646-2.647h-9.05l-0.185-1.165c-0.087-0.545-0.589-0.919-1.145-0.831
		c-0.545,0.087-0.917,0.599-0.83,1.145l0.135,0.852h-7.728C248.277,51.082,249.005,49.923,249.84,48.585z M274.134,71.753
		l-5.059,3.669v-3.638L274.134,71.753z M234.635,70.203L234.635,70.203l0.001-2V54.739c0-0.357,0.29-0.647,0.647-0.647h8.542h2.471
		h20.132c0.356,0,0.646,0.29,0.646,0.647v7.448v2.026v3.99v1.342v0.658v0.588v0.768v5.158c0,0.357-0.29,0.647-0.646,0.647h-31.146
		c-0.357,0-0.647-0.29-0.647-0.647V70.203z M231.695,70.203h0.94v6.514c0,1.459,1.188,2.647,2.647,2.647h31.146
		c0.898,0,1.691-0.452,2.17-1.139c0.02-0.013,0.044-0.018,0.063-0.032l6.646-4.82c0.708-0.513,0.991-1.38,0.723-2.208
		c-0.097-0.3-0.272-0.545-0.477-0.757c0.389-0.058,0.754-0.124,1.107-0.204h9.404l-16.307,14.472l-1.345,1.193h-37.776h-16.385
		L231.695,70.203z M212.641,89.645h0.001v-1.777h7.104h18.679h29.369v4.379h-4.805h-26.552h-3.797h-15.36
		c-0.012,0-0.022,0.006-0.033,0.007c-0.012,0-0.022-0.007-0.034-0.007h-2.347h-2.225V89.645z M267.627,94.248v13.046h-3.639V94.248
		H267.627z M231.086,94.248l-10.896,9.94c-0.001,0.001-0.001,0.001-0.001,0.002c-0.001,0.001-0.002,0.001-0.003,0.002l-1.906,1.758
		V94.248H231.086z M216.213,94.248v13.046h-3.571V94.248H216.213z M210.642,93.438v14.856c0,0.552,0.447,1,1,1h5.571
		c0.012,0,0.022-0.006,0.033-0.007c0.012,0,0.022,0.007,0.034,0.007c0.306,0,0.57-0.163,0.753-0.396l3.509-3.235l12.511-11.414
		h0.047c0.102,0.194,0.217,0.38,0.304,0.584l13.755,32.095c0.858,2.002,0.918,4.231,0.168,6.278l-2.071,5.65
		c-1.161,3.167-4.087,5.349-7.454,5.56l-22.564,1.41c-2.977,0.186-5.729,1.498-7.748,3.693l-4.062,4.416
		c-3.459,3.759-4.015,9.429-1.352,13.788l3.686,6.031c1.911,3.126,1.609,7.11-0.751,9.913l-0.635,0.754
		c-1.619,1.923-3.99,3.026-6.505,3.026c-3.146,0-6.083,1.245-8.27,3.506c-2.187,2.261-3.333,5.238-3.229,8.382l0.14,4.179
		c0.025,0.764,0.128,1.527,0.303,2.267l3.519,14.858c0.497,2.095,0.186,4.28-0.875,6.152l-0.536,0.946
		c-4.116,7.264-9.319,13.814-15.465,19.468l-9.734,8.957c-4.214,3.876-9.331,6.825-14.8,8.528l-14.755,4.596
		c0,0.001,0,0.001,0,0.001c-5.225,1.626-10.653,2.354-16.108,2.167c-3.359-0.115-6.341-2.205-7.596-5.323l-3.198-7.943l0.279,0.023
		c0.027,0.002,0.056,0.003,0.083,0.003c0.352,0,0.668-0.187,0.846-0.476c1.151,1.186,1.998,2.666,2.41,4.267l0.104,0.429
		c0.158,0.674,0.339,1.438,0.804,2.117c0.504,0.733,1.384,1.274,2.284,1.274c0.367,0,0.736-0.09,1.086-0.292
		c0.309-0.179,0.499-0.508,0.499-0.864l0.013-16.352c0-0.227,0-0.831-0.494-1.253c-0.37-0.318-0.805-0.337-0.99-0.345
		c-1.223-0.055-2.463-0.021-3.681,0.1c-0.089,0.009-0.165,0.045-0.245,0.075c-0.022-0.043-0.03-0.091-0.058-0.13
		c-0.155-0.219-0.393-0.366-0.658-0.408l-7.529-1.201l-1.341-3.33c-0.496-1.231-0.902-2.496-1.223-3.783l8.448-2.433
		c0.175-0.05,0.315-0.155,0.433-0.279l4.771,6.192c0.185,0.238,0.617,0.796,1.351,0.846c0.034,0.002,0.069,0.004,0.104,0.004
		c0.423,0,0.831-0.178,1.213-0.528c0.865-0.793,1.344-2.038,1.312-3.414c-0.025-1.083-0.337-2.101-0.683-3.133
		c-1.233-3.695-2.653-7.372-4.221-10.929c-0.209-0.474-0.746-0.71-1.234-0.544l-3.743,1.262c-0.122,0.041-0.228,0.107-0.321,0.186
		c-0.064-0.083-0.13-0.165-0.218-0.225c-0.222-0.152-0.497-0.208-0.759-0.157l-6.512,1.279
		C106.982,163.06,151.478,111.074,210.642,93.438z M109.954,255.471l0.782-4.373l0.43-2.408c0.061,0.031,0.119,0.064,0.187,0.082
		c0.112,0.03,0.229,0.048,0.352,0.036c0.97-0.095,1.953-0.132,2.97-0.105l-0.012,14.946c-0.081-0.062-0.157-0.139-0.22-0.229
		c-0.255-0.371-0.377-0.893-0.508-1.444c-0.037-0.157-0.074-0.314-0.113-0.47c-0.604-2.337-1.961-4.471-3.821-6.008
		C109.987,255.484,109.969,255.482,109.954,255.471z M108.691,226.996c0.051-0.009,0.102-0.002,0.153-0.019l2.874-0.969
		c1.398,3.239,2.671,6.571,3.789,9.919c0.306,0.916,0.561,1.74,0.579,2.545c0.016,0.658-0.155,1.259-0.494,1.696l-4.815-6.249
		c-0.234-0.304-0.606-0.422-0.959-0.363L108.691,226.996z M25.057,242.771c0.261-0.868,0.411-1.786,0.411-2.753
		c0-0.957-0.17-1.899-0.473-2.809c0.981,1.281,1.995,2.531,3.077,3.711L25.057,242.771z M29.142,243.374
		c-0.05-0.229-0.184-0.41-0.352-0.548l0.697-0.428c0.858,0.866,1.741,1.706,2.656,2.512h-2.668L29.142,243.374z M61.125,249.702
		c-0.328,0.062-0.665,0.098-1.01,0.099c-0.007,0-0.013,0.001-0.02,0.001h-0.982h-1.029c-4.645,0-12.288-0.347-17.191-0.928
		l-0.31-0.186c-5.796-3.569-10.756-8.156-14.764-13.651l0.421-0.041c0.058,0.012,0.116,0.019,0.177,0.021
		c0.443,0.017,0.855-0.278,0.986-0.709c0.292-0.964,1.255-2.018,2.947-3.224c1.336-0.964,2.68-1.404,5.141-1.684
		c4.748-0.558,14.688,1.875,14.788,1.9c0.132,0.034,0.271,0.038,0.402,0.016l9.96-1.645l1.015-0.168l2.1-0.347l0.833,0.04
		c0.472,0.173,0.836,0.561,0.976,1.048c0.04,0.138,0.068,0.281,0.068,0.432v7.752h-1.706c-0.379,0-0.697,0.219-0.867,0.53
		l-1.086-0.415l-0.514-0.196l-1.588-1.547c-0.395-0.384-1.029-0.377-1.414,0.019c-0.386,0.396-0.378,1.028,0.018,1.414l1.211,1.18
		c-0.26,2.329-0.778,4.583-1.56,6.699c0,0.001,0,0.001,0,0.002l-0.001,0.001l-0.063,0.176c-0.005,0.012-0.009,0.024-0.013,0.036
		l-1.819-0.338c-0.542-0.103-1.064,0.258-1.166,0.801c-0.101,0.543,0.258,1.065,0.801,1.166l2.287,0.422
		c0.134,0.033,0.257,0.048,0.371,0.048c0.284,0,0.51-0.089,0.695-0.198c0.006-0.004,0.009-0.009,0.015-0.013
		c0.25-0.174,0.367-0.394,0.451-0.574l0.584,0.144l0.984,0.243l0.14,0.034c0.5,0.131,1.005,0.193,1.533,0.203v0.059
		c0,0.209,0.082,0.401,0.201,0.569C62.53,249.285,61.853,249.565,61.125,249.702z M64.188,246.044c0,0.056-0.041,0.106-0.1,0.119
		c-0.054,0.012-0.109,0.016-0.164,0.026c-0.326,0.06-0.662,0.089-1,0.079c-0.351-0.01-0.702-0.056-1.041-0.145l-0.478-0.118
		l-0.984-0.243l0.021-0.279c0.505-1.598,0.888-3.252,1.127-4.954l0.245,0.094l1.111,0.425l1,0.382l0.179,0.068
		c0.047,0.018,0.084,0.066,0.084,0.109V246.044z M65.706,249.28l2.806-0.071v2.088l-4.251-0.756
		C64.796,250.184,65.279,249.758,65.706,249.28z M68.514,247.208L68.514,247.208l-1.499,0.038l-1.12,0.028
		c0.469-0.901,0.738-1.923,0.738-3.009v-3.837h1h0.881V247.208z M68.513,233.259v5.168h-0.881v-7.752
		c0-0.115-0.023-0.223-0.034-0.335l2.556,0.122C69.179,231.019,68.513,232.058,68.513,233.259z M86.394,240.79v1.005v0.636v1.032
		v1.028v9.765v0.237c0,0.282-0.111,0.53-0.271,0.738c-0.226,0.295-0.565,0.497-0.964,0.497h-2.805H71.748
		c-0.682,0-1.235-0.554-1.235-1.235v-0.809v-1.016v-1.015v-3.47v-8.755v-6.168c0-0.681,0.554-1.235,1.235-1.235h13.41
		c0.682,0,1.235,0.554,1.235,1.235v6.507h0.001V240.79z M87.222,230.789l9.386-1.843l3.581-0.703l6.101-1.198l1.198,6.888
		l-7.451,2.146l-3.393,0.977l-5.169,1.489c-1.019,0.293-2.048,0.557-3.082,0.799v-6.084
		C88.394,232.264,87.932,231.383,87.222,230.789z M96.566,244.123l-8.172-1.304v-1.423c1.221-0.276,2.434-0.584,3.635-0.929
		l4.557-1.312c-0.022,1.083-0.041,2.166-0.041,3.254C96.544,242.981,96.56,243.551,96.566,244.123z M97.067,255.253l-5.214-0.431
		c-1.151-0.095-2.305-0.207-3.459-0.331v-9.651l8.198,1.309l3.034,0.484l0.808,0.129l3.456,0.552l5.338,0.852l-1.425,7.974
		l-0.372-0.031l-3.346-0.277l-3.973-0.328L97.067,255.253z M164.985,372.73c-0.076,0.196-0.192,0.38-0.35,0.538l-70.291,70.29
		c-0.611,0.61-1.606,0.611-2.218,0L55.68,407.111c-0.611-0.611-0.611-1.607,0-2.219l70.291-70.29
		c0.049-0.049,0.103-0.087,0.157-0.128c0.281-0.216,0.615-0.33,0.953-0.33c0.401,0,0.803,0.152,1.108,0.458l8.519,8.518l2.19,2.19
		l-0.153,0.153l-2.127,2.127l-13.581,13.581c-1.301,1.303-1.301,3.422,0.001,4.724l8.244,8.244c0.631,0.631,1.47,0.979,2.362,0.979
		c0.892,0,1.73-0.348,2.361-0.979l13.568-13.568l2.127-2.127l0.167-0.167l2.43,2.43l10.34,10.339
		C165.089,371.502,165.205,372.167,164.985,372.73z M140.757,347.694l0.262-0.262l4.562,4.562l4.164,4.164l-0.269,0.269
		l-2.125,2.125l-13.467,13.467c-0.134,0.134-0.35,0.132-0.481,0l-8.244-8.244c-0.133-0.133-0.133-0.35,0-0.482l13.475-13.475
		L140.757,347.694z M235.669,425.584c-1.325-0.193-2.602-0.533-3.806-1.021c-6.07-2.459-10.367-8.407-10.367-15.348
		c0-4.263,1.633-8.142,4.289-11.081c0.857-0.949,1.814-1.804,2.867-2.534c2.674-1.853,5.913-2.947,9.406-2.947
		c4.681,0,8.906,1.961,11.921,5.094c0.889,0.924,1.665,1.951,2.322,3.06c1.462,2.468,2.318,5.336,2.318,8.407
		c0,0.673-0.052,1.334-0.131,1.986c-0.041,0.337-0.093,0.67-0.153,1c-0.062,0.338-0.139,0.669-0.221,1
		c-0.081,0.328-0.156,0.659-0.257,0.979c-0.107,0.34-0.238,0.669-0.367,1c-0.132,0.339-0.275,0.672-0.428,1
		c-0.075,0.16-0.15,0.32-0.23,0.477c-1.036,2.049-2.472,3.862-4.225,5.314c-2.235,1.851-4.968,3.109-7.959,3.582
		c-0.332,0.053-0.662,0.11-1,0.143c-0.161,0.015-0.327,0.014-0.489,0.025c-0.17,0.011-0.34,0.02-0.511,0.026
		c-0.163,0.007-0.324,0.025-0.489,0.026c-0.034,0-0.067,0.005-0.102,0.005c-0.131,0-0.258-0.017-0.388-0.02
		c-0.171-0.004-0.341-0.017-0.511-0.026c-0.163-0.009-0.327-0.011-0.489-0.025C236.332,425.678,236,425.632,235.669,425.584z
		 M267.273,397.335c-0.149,0.751-0.514,1.425-1.025,1.957v-1.866v-0.449c0-1.533-1.248-2.781-2.781-2.781h-0.084
		c-1.533,0-2.781,1.248-2.781,2.781v0.755v1.56c-0.414-0.431-0.716-0.961-0.902-1.542c-0.119-0.372-0.2-0.761-0.2-1.172
		c0-2.164,1.761-3.924,3.925-3.924s3.924,1.76,3.924,3.924C267.349,396.837,267.322,397.09,267.273,397.335z M268.046,400.28
		c1.131-0.093,2.26-0.196,3.384-0.312l-4.551,11.234h-1.047v-5.538c0.246-0.182,0.416-0.46,0.416-0.79v-3.088
		C266.943,401.407,267.554,400.893,268.046,400.28z M263.343,403.874L263.343,403.874l-0.346,0h-0.143h-0.252v-0.435v-1.001v-0.284
		v-0.735v-0.344v-0.446v-0.217v-2.787v-0.648c0-0.431,0.351-0.781,0.781-0.781h0.084c0.431,0,0.781,0.351,0.781,0.781v0.56v2.875
		v0.126v0.588v0.293v0.845v0.174v1.001v0.435h-0.416H263.343z M263.832,405.874v5.328h-0.49h-0.489v-5.328h0.489H263.832z
		 M260.602,401.786v3.088c0,0.25,0.101,0.472,0.252,0.647v1.049v4.633h-3.683h-0.661c0.07-0.653,0.11-1.315,0.11-1.986
		c0-3.019-0.74-5.863-2.024-8.385c0.125,0,0.25,0.004,0.375,0.004c1.429,0,2.849-0.041,4.269-0.079
		C259.641,401.159,260.097,401.511,260.602,401.786z M260.855,432.623h-0.001h-20.205v-0.642v-4.406
		c1.553-0.218,3.048-0.616,4.454-1.195c4.602-1.896,8.273-5.587,10.149-10.199h5.603V432.623z M262.854,434.623v-18.442h0.489h0.49
		v18.932c0,0.27-0.22,0.488-0.489,0.488H240.65v-0.489v-0.489H262.854z M238.648,446.826c0,0.27-0.22,0.489-0.489,0.489h-4.082
		v-0.489v-0.489h3.593v-5.139c0.146,0.183,0.309,0.349,0.489,0.498c0.153,0.127,0.315,0.239,0.489,0.337V446.826z M238.649,432.623
		L238.649,432.623l-0.001,1v0.489v0.384v0.126v0.489v0.489v0.512v0.096c-0.174,0.098-0.336,0.21-0.489,0.337
		c-0.02,0.016-0.04,0.032-0.059,0.049c-0.157,0.136-0.3,0.286-0.43,0.449v-0.532v-1.399v-1.4v-1.039v-4.915
		c0.13,0.003,0.257,0.02,0.388,0.02c0.034,0,0.067-0.005,0.102-0.005c0.165-0.001,0.325-0.02,0.489-0.025V432.623z M259.001,473.394
		c-1.197,3.806-4.141,6.17-7.683,6.17c-4.615,0-9.287-3.071-9.289-8.875l0.073-1.093c0.07,0.155,0.148,0.305,0.242,0.442
		c0.557,0.809,1.561,1.28,2.616,1.28c0.287,0,0.578-0.035,0.864-0.107c0.855-0.215,1.668-0.745,2.43-1.546
		c0.213,0.181,0.494,0.28,0.8,0.23c0.198-0.031,0.36-0.132,0.498-0.256c0.075-0.067,0.14-0.139,0.192-0.225
		c0.568,0.127,1.113,0.37,1.595,0.709c0.768,0.541,1.379,1.307,1.66,2.19c0.136,0.425,0.529,0.696,0.953,0.696
		c0.101,0,0.203-0.015,0.304-0.047c0.526-0.168,0.816-0.73,0.649-1.257c-0.076-0.24-0.182-0.466-0.288-0.693
		c-0.143-0.305-0.308-0.597-0.498-0.875c0.573,0.232,1.079,0.632,1.445,1.131c0.216,0.295,0.388,0.622,0.487,0.974
		c0.125,0.44,0.525,0.729,0.962,0.729c0.09,0,0.182-0.012,0.272-0.037c0.455-0.129,0.727-0.553,0.709-1.006
		c-0.003-0.076,0.004-0.152-0.017-0.229c-0.084-0.297-0.202-0.579-0.337-0.852c0.246,0.126,0.474,0.266,0.657,0.448
		c0.279,0.276,0.479,0.554,0.615,0.834c-0.003,0.009-0.004,0.019-0.007,0.028c-0.002,0.006,0,0.011-0.001,0.017
		c-0.086,0.317,0.003,0.631,0.194,0.872c-0.001,0.012,0.002,0.024,0.001,0.036L259.001,473.394z M259.388,468.652
		c0,0.308-0.011,0.614-0.031,0.916c-0.937-0.742-2.09-1.028-3.039-1.261c-0.333-0.084-0.66,0.029-0.898,0.245
		c-0.622-0.34-1.306-0.567-2.024-0.625c-0.4-0.03-0.774,0.188-0.959,0.527c-0.86-0.593-1.854-0.974-2.895-1.091
		c-0.112-0.347-0.236-0.69-0.389-1.023c-0.155-0.337-0.484-0.561-0.854-0.581c-0.374-0.021-0.722,0.168-0.912,0.485
		c-0.46,0.768-0.796,1.597-1.019,2.46c-0.021,0.017-0.042,0.036-0.063,0.052c-0.326,0.255-0.649,0.434-0.968,0.514
		c-0.529,0.135-1.107-0.023-1.344-0.366c-0.132-0.193-0.185-0.492-0.167-0.82c0.002-0.035-0.007-0.065-0.003-0.101
		c0.104-1.013,0.932-1.945,1.924-2.17c0.539-0.122,0.877-0.657,0.755-1.196c-0.122-0.54-0.658-0.875-1.196-0.755
		c-0.438,0.099-0.852,0.273-1.236,0.5c0.495-0.979,1.113-1.859,1.817-2.616c1.586-1.707,3.611-2.766,5.693-2.766
		c1.154,0,2.225,0.267,3.184,0.754C257.563,461.158,259.388,464.477,259.388,468.652z M256.146,450.368
		c-0.317,1.589-1.566,3.869-1.989,4.177c-0.252,0.168-0.414,0.44-0.442,0.741l-0.177,1.912c-0.63-0.14-1.284-0.217-1.959-0.217
		c-1.831,0-3.624,0.635-5.208,1.731l-0.134-1.414c0.005-0.033,0.009-0.066,0.011-0.1c0.024-0.458-0.267-0.875-0.705-1.01
		c-1.067-0.328-2.112-1.785-2.456-2.265c-0.747-1.04-1.089-2.087-1.309-3.998c-0.318-2.771-0.301-5.856-0.266-7.377h16.683
		L256.146,450.368z M262.498,440.479h-21.85h-0.361c-0.232,0-0.448-0.064-0.639-0.167c-0.196-0.106-0.366-0.253-0.489-0.437
		c-0.145-0.216-0.229-0.475-0.229-0.753c0-0.278,0.085-0.537,0.229-0.753c0.123-0.184,0.293-0.331,0.489-0.437
		c0.191-0.103,0.407-0.167,0.639-0.167h0.361h24.809C265.327,439.282,264.05,440.479,262.498,440.479z M264.832,414.182
		L264.832,414.182l-0.489-0.001h-0.511h-0.49h-0.489h-0.511h-0.489h-1h-4.929c0.09-0.324,0.18-0.648,0.252-0.979h4.677h1h0.489
		h0.511h0.489h0.49h0.511h0.489h1h2.395l5.113-12.622l0.988,0.166l-5.318,13.129c-0.075,0.187-0.254,0.307-0.454,0.307h-2.724
		H264.832z M276.863,422.4c-0.11,1.356-0.273,2.634-1.038,3.351c-0.469,0.438-1.194,0.673-1.837,0.858
		c-2.655,0.764-5.397,1.116-8.156,1.09V416.18h0.388c-0.181,0.453-0.026,0.978,0.408,1.23c0.158,0.092,0.331,0.136,0.502,0.136
		c0.345,0,0.68-0.178,0.865-0.497c0.057-0.097,0.135-0.179,0.202-0.269c-0.005,0.225-0.026,0.448-0.013,0.673
		c0.029,0.532,0.471,0.943,0.997,0.943c0.019,0,0.038-0.001,0.058-0.002c0.551-0.03,0.973-0.503,0.941-1.055
		c-0.037-0.656,0.028-1.309,0.181-1.944c0.208-0.221,0.383-0.478,0.502-0.772l3.532-8.721c0.005,0,0.009,0.002,0.014,0.001
		c1.462-0.14,2.565,0.021,3.756,0.519L276.863,422.4z M284.979,403.228c-0.385,0.245-0.945,0.316-1.54,0.391l-0.179,0.022
		c-1.449,0.187-2.883,0.516-4.271,0.965c-1.227-0.523-2.414-0.756-3.772-0.732l1.13-2.791l8.936,1.496
		c0.013,0.027,0.012,0.057,0.028,0.083C285.354,402.736,285.246,403.057,284.979,403.228z M285.982,400.669l-8.567-1.435
		l-0.325-0.055l-0.989-0.166l-1.004-0.168l-0.988-0.166l-0.349-0.058l0.235-1.403l0.009-0.051l0.074,0.012l1.681,0.282l1.279,0.214
		l4.945,0.828l4.244,0.711L285.982,400.669z M278.933,395.966l-5.587-0.935c-0.26-0.042-0.53,0.019-0.746,0.172
		c-0.216,0.154-0.361,0.388-0.405,0.649l-0.175,1.046c-0.9,0.099-1.807,0.173-2.712,0.257c0.019-0.191,0.04-0.38,0.04-0.576
		c0-3.267-2.657-5.924-5.924-5.924c-3.267,0-5.925,2.657-5.925,5.924c0,0.416,0.056,0.817,0.138,1.208
		c-0.89,0.015-1.775,0.047-2.668,0.047c-0.768,0-1.533-0.011-2.298-0.022c-3.4-4.348-8.68-7.158-14.614-7.158
		c-4.597,0-8.801,1.69-12.047,4.468c-21.172-4.01-40.838-12.326-58.05-24.003c-0.187-0.803-0.579-1.568-1.204-2.192l-19.018-19.017
		l-5.66-5.66c-0.001-0.001-0.003-0.002-0.004-0.003l-11.766-11.766c-0.789-0.789-1.798-1.207-2.831-1.297
		c-14.865-21.29-24.544-46.458-27.183-73.656l4.624,0.382l3.76,9.34c1.698,4.218,5.731,7.044,10.275,7.2
		c0.598,0.021,1.195,0.031,1.792,0.031c5.194,0,10.338-0.783,15.312-2.332l14.755-4.596c5.889-1.835,11.4-5.012,15.938-9.187
		l9.734-8.956c6.375-5.865,11.772-12.661,16.043-20.196l0.536-0.946c1.436-2.534,1.856-5.49,1.186-8.323l-3.519-14.858
		c-0.13-0.547-0.205-1.111-0.225-1.677l-0.14-4.178c-0.077-2.324,0.771-4.525,2.387-6.196c1.617-1.671,3.788-2.592,6.113-2.592
		c3.402,0,6.609-1.492,8.8-4.094l0.635-0.754c3.193-3.792,3.602-9.181,1.017-13.41l-3.686-6.031
		c-1.969-3.223-1.559-7.414,0.998-10.192l4.062-4.416c1.493-1.623,3.527-2.592,5.729-2.73l22.564-1.41
		c4.555-0.285,8.513-3.238,10.083-7.522l2.071-5.649c1.015-2.768,0.935-5.784-0.227-8.492l-13.499-31.497h24.57v14.046
		c0,0.552,0.447,1,1,1h5.639c0.017,0,0.031-0.009,0.048-0.01c0.095,0.029,0.19,0.06,0.288,0.06c0.247,0,0.49-0.091,0.679-0.266
		l3.629-3.355l12.439-10.947c0.003-0.003,0.004-0.006,0.007-0.009c0.004-0.003,0.008-0.004,0.012-0.007l3.647-3.371
		c0.144-0.133,0.224-0.309,0.271-0.495c3.562,0.816,7.08,1.748,10.544,2.804c-0.612,0.553-1.127,1.226-1.466,2.028l-7.795,18.448
		c-2.021,4.784-2.053,10.285-0.087,15.093c1.301,3.18,4.06,5.61,7.378,6.501l11.387,3.055c3.309,0.888,6.415,2.325,9.232,4.271
		l2.634,1.818c8.753,6.043,13.979,16.002,13.979,26.639v0.317c0,0.229-0.027,0.458-0.081,0.679l-6.904,28.048
		c-0.896,3.638,0.033,7.5,2.487,10.333c2.381,2.747,5.679,4.502,9.286,4.941l10.301,1.256c3.478,0.424,6.794,1.983,9.338,4.391
		l9.22,8.721c3.138,2.967,4.514,7.269,3.684,11.507l-1.713,8.735c-1.297,6.615,2.1,13.147,8.26,15.886l2.395,1.064
		c3.716,1.651,6.187,5.198,6.448,9.256l0.263,4.072c0.18,2.767-0.196,5.496-1.117,8.111l-5.199,14.776
		c-1.902,5.408-5.707,9.927-10.711,12.723l-21.93,12.255c-3.036,1.696-6.479,2.593-9.957,2.593c-2.482,0-4.698,1.575-5.516,3.921
		l-4.172,11.995c-2.098,6.03-1.626,12.745,1.294,18.421l3.496,6.799c0.479,0.932,1.192,1.684,2.034,2.225
		C319.371,385.302,299.831,392.714,278.933,395.966z M339.892,372.517c-1.073,0.025-2.097-0.557-2.6-1.536l-3.496-6.799
		c-2.546-4.949-2.957-10.805-1.128-16.062l4.172-11.995c0.396-1.141,1.475-1.907,2.682-1.907c3.989,0,7.938-1.028,11.42-2.974
		l21.93-12.255c5.644-3.153,9.933-8.248,12.078-14.346l5.199-14.776c1.056-2.999,1.486-6.129,1.281-9.301l-0.263-4.072
		c-0.135-2.091-0.737-4.072-1.711-5.833c0.296-0.039,0.593-0.073,0.886-0.131c0.772-0.153,1.861-0.473,2.407-1.475
		c0.065-0.119,0.101-0.245,0.115-0.372c0.222-0.138,0.432-0.284,0.622-0.423c1.334-0.986,2.734-1.905,4.161-2.729
		c0.113-0.065,0.205-0.152,0.281-0.248c1.158,0.381,2.281,0.753,3.334,1.106c0.787,1.547,1.849,2.952,3.149,4.121
		c-0.31,0.396-0.456,0.917-0.339,1.421c0.052,0.22,0.147,0.423,0.278,0.601c-0.146,0.277-0.271,0.568-0.359,0.884
		c-0.244,0.86-0.145,1.731,0.275,2.393c0.427,0.67,1.166,1.061,1.899,1.061c0.123,0,0.245-0.011,0.366-0.033
		C397.483,316.689,373.085,350.778,339.892,372.517z M407.342,273.077l-0.809,1.305c-0.076,0.123-0.277,0.449-0.365,0.485
		c-0.019,0-0.155-0.046-0.212-0.135c-0.11-0.174-0.125-0.47-0.039-0.774c0.107-0.378,0.343-0.758,0.616-1.181
		c0.154-0.238,0.199-0.527,0.129-0.796l0.861,0.156l0.129,0.023c0.086,0.015,0.171,0.017,0.251,0.014L407.342,273.077z
		 M408.035,269.46c-0.006,0.005-0.012,0.011-0.019,0.016c0.006-0.007,0.013-0.012,0.019-0.019c0.646-0.686,1.317-1.347,2.017-1.976
		l0.881-0.399c0.159-0.037,0.317-0.075,0.476-0.113l-3.358,2.476C408.046,269.451,408.041,269.456,408.035,269.46z M410.953,270.184
		c-0.428,0.187-0.856,0.372-1.283,0.555l1.359-1.002l4.409-3.252c0.15-0.111,0.244-0.26,0.311-0.42
		c1.169-0.202,2.341-0.372,3.512-0.446c0.019-0.001,0.034-0.012,0.053-0.014C416.784,267.514,413.873,268.908,410.953,270.184z
		 M420.933,263.883c-0.026,0.021-0.119,0.037-0.167,0.021c-0.184-0.069-0.368-0.317-0.468-0.632
		c-0.189-0.593-0.092-1.281,0.27-1.819c0.063-0.092,0.153-0.231,0.223-0.405c-0.02,0.796,0.018,1.621,0.191,2.438
		c0.015,0.073,0.045,0.136,0.062,0.207C421.005,263.755,420.958,263.809,420.933,263.883z M420.919,259.234
		c-0.032,0.289-0.061,0.592-0.085,0.901c-0.056-0.187-0.135-0.336-0.19-0.431l-0.005-0.009c-0.139-0.242-0.36-0.394-0.605-0.451
		c0.154-0.171,0.258-0.39,0.265-0.638c0.006-0.265,0.122-0.517,0.283-0.614c0.078-0.048,0.2-0.037,0.235-0.014
		c0.071,0.09,0.16,0.154,0.252,0.213C421.005,258.537,420.958,258.887,420.919,259.234z M421.636,249.973
		c-0.518,0.5-1.226,1.186-1.459,2.169c-0.132,0.562-0.078,1.102-0.035,1.536l0.182,1.826c-0.955-0.179-1.915-0.341-2.879-0.487
		c0.057-0.864,0.128-1.688,0.338-2.469c0.171-0.638,0.521-1.521,1.211-2.114c0.356-0.306,0.825-0.552,1.278-0.79l2.312-1.213
		l0.247,0.386L421.636,249.973z M421.942,270.758c-0.05-0.352-0.026-0.695,0.094-0.981c0.202-0.484,0.716-0.839,1.164-0.781
		c0.072,0.01,0.138-0.009,0.208-0.014C422.905,269.559,422.416,270.152,421.942,270.758z M432.914,255.966
		c0.068,0.187,0.14,0.373,0.228,0.553c0.004,0.009,0.012,0.015,0.016,0.024c0.066,0.23,0.206,0.44,0.425,0.577
		c2.6,1.619,3.927,4.04,3.642,6.642c-0.179,1.64-0.863,3.738-1.942,4.469c-1.265,0.856-2.793,1.286-4.212,1.167
		c-0.226-0.017-0.435,0.058-0.616,0.176c-0.154-0.009-0.31,0.006-0.461,0.073c-0.17,0.076-0.336,0.161-0.498,0.255
		c-0.133-0.932-0.02-1.976,0.128-3.049C430.121,263.202,430.848,259.158,432.914,255.966z M425.747,255.862
		c0.77-0.096,1.588-0.015,2.393,0.081c0.028,0.013,0.047,0.04,0.076,0.05l1.976,0.709c-1.267,2.628-1.896,5.543-2.326,8.324
		l-0.52-0.029c-0.127-0.015-0.248,0.004-0.362,0.039c-0.37-0.172-0.822-0.115-1.127,0.192c-0.39,0.391-0.39,1.023,0.002,1.414
		c0.317,0.316,0.447,0.838,0.315,1.268c-0.053,0.175-0.15,0.286-0.172,0.3c-0.047-0.001-0.221-0.077-0.427-0.3
		c-0.364-0.394-0.552-0.848-0.502-1.213c0.063-0.464-0.212-0.881-0.629-1.047c-0.724-0.549-1.273-1.472-1.506-2.579
		c-0.251-1.185-0.163-2.438-0.031-3.615c0.131-1.178,0.329-2.086,0.867-2.691C424.2,256.286,424.901,255.966,425.747,255.862z
		 M423.109,253.744c0.015-0.055,0.034-0.109,0.059-0.164c0.062,0.334,0.139,0.665,0.217,0.996c-0.036,0.02-0.07,0.042-0.105,0.063
		C423.105,254.376,423.029,254.039,423.109,253.744z M424.878,248.139c-0.042-0.018-0.085-0.016-0.127-0.028l-0.341-0.534
		c0.04-0.072,0.081-0.144,0.103-0.228c0.057-0.218,0.184-0.438,0.333-0.654c0.025,0.222,0.071,0.44,0.156,0.637
		c0.19,0.439,0.484,0.813,0.873,1.13C425.533,248.384,425.198,248.279,424.878,248.139z M433.568,245.39
		c-0.346,0.124-0.819,0.294-1.203,0.706c-0.202,0.219-0.325,0.448-0.423,0.632l-0.086,0.155c-0.229,0.383-0.712,0.671-1.287,0.771
		c-0.684,0.116-1.426-0.016-1.996-0.146c-0.93-0.21-1.505-0.52-1.712-0.921l1.67-0.306c0.324-0.06,0.598-0.274,0.732-0.574
		c0.134-0.3,0.113-0.646-0.057-0.928c-0.036-0.059-0.06-0.125-0.091-0.188c0-0.008-0.002-0.015-0.002-0.023l-0.008,0.002
		c-0.072-0.136-0.147-0.27-0.203-0.418c0.061,0.025,0.115,0.067,0.175,0.097c0.146,0.073,0.292,0.143,0.428,0.237
		c0.147,0.102,0.29,0.211,0.421,0.338c0.144,0.139,0.409,0.396,0.823,0.479c0.476,0.098,0.868-0.086,1.057-0.175
		c0.471-0.222,0.643-0.748,0.465-1.226l0.637-0.134c0.058,0.206,0.129,0.421,0.23,0.653c0.123,0.289,0.287,0.623,0.464,0.965
		C433.591,245.389,433.579,245.386,433.568,245.39z M436.359,246.224c-0.401-0.682-1.062-1.84-1.383-2.593
		c-0.146-0.337-0.205-0.603-0.229-0.791l2.386-1.012c0.509-0.215,0.746-0.803,0.53-1.311c-0.217-0.509-0.803-0.745-1.312-0.53
		l-2.934,1.245c-0.222,0.094-0.391,0.272-0.496,0.488l-3.109,0.656c-0.383-0.171-0.782-0.304-1.193-0.375
		c-0.824-0.146-1.295,0.159-1.547,0.439c-0.148,0.166-0.246,0.361-0.303,0.577c-0.343,0.014-0.69,0.083-1.03,0.218l-12.393,2.616
		l-3.01,0.635l-3.058,0.646c-0.553-1.564-1.744-5.458-2.142-10.9c-0.101-1.271-0.147-2.586-0.14-3.913
		c0-0.88,0.026-1.795,0.078-2.715c0.069-1.188,0.167-2.33,0.288-3.396c0.595-5.231,1.763-8.899,2.596-10.991
		c0.236-0.592,0.447-1.065,0.608-1.403l2.345,0.647l28.284,7.798c0.057,0.016,0.114,0.026,0.173,0.032l31.713,2.966
		c2.093,0.256,3.373,1.646,4.138,4.5l-0.001,0.024c-0.025,0.525,0.359,0.981,0.882,1.042l1.36,0.16c0.003,0,0.005-0.001,0.007-0.001
		c-0.271,0.693-0.441,1.42-0.484,2.173c-0.063,1.113,0.15,2.193,0.578,3.197l-1.3,0.006c-0.13-0.068-0.278-0.108-0.436-0.113
		c-0.527-0.044-0.996,0.404-1.025,0.944c-0.017,0.302-0.068,0.594-0.139,0.881c-0.329-0.143-0.655-0.29-0.98-0.441
		c-0.997-0.462-2.028-0.94-3.167-1.201c-1.509-0.345-3.61-0.238-5.025,1.061c-0.005,0.003-0.009,0.007-0.013,0.01
		c-0.017,0.016-0.037,0.027-0.054,0.043c-0.024,0.023-0.033,0.053-0.054,0.078c-0.069,0.074-0.127,0.153-0.171,0.246
		c-0.001,0.003-0.002,0.006-0.003,0.009c-0.041,0.088-0.083,0.176-0.097,0.277c-0.076,0.547,0.306,1.052,0.853,1.128
		c1.396,0.193,2.603,1.233,3.88,2.333c0.092,0.08,0.187,0.159,0.28,0.239L436.359,246.224z M473.57,241.943
		c-0.84-0.473-1.613-1.14-2.433-1.845c-0.749-0.645-1.514-1.298-2.351-1.819c0.415-0.02,0.845-0.003,1.285,0.098
		c0.934,0.213,1.826,0.627,2.771,1.065c0.566,0.263,1.152,0.534,1.76,0.766c0.866,0.33,1.947,0.622,3.063,0.622
		c0.897,0,1.819-0.189,2.669-0.7c0.078-0.047,0.134-0.115,0.194-0.178c0.353,0.253,0.724,0.489,1.119,0.701
		C479.635,242.77,476.133,243.385,473.57,241.943z M486.917,238.189c-0.266-0.056-0.521-0.094-0.745-0.124
		c-0.561-0.07-1.051,0.311-1.125,0.857c-0.031,0.229,0.033,0.442,0.14,0.627l-0.331,0.192c-0.053-0.013-0.107-0.025-0.159-0.039
		c-0.254-0.34-0.684-0.479-1.091-0.347c-2.889-1.116-4.769-3.5-4.624-6.089c0.093-1.639,0.982-3.147,2.507-4.248
		c1.586-1.146,3.651-1.714,5.826-1.588c0.402,0.022,0.799,0.06,1.21,0.116c0.437,0.049,1.705,0.265,2.49,0.681
		c-1.417,1.393-2.349,3.266-2.569,5.252c-0.003,0.024,0.007,0.045,0.006,0.069C487.554,234.929,487.028,236.545,486.917,238.189z
		 M497.463,236.347c-2.406,5.502-6.159,5.29-7.396,5.221c-0.268-0.015-0.489-0.035-0.675-0.057c0.008-0.044,0.027-0.08,0.033-0.125
		c0.039-0.302,0.033-0.594-0.008-0.871c0.351-0.003,0.69-0.19,0.87-0.52c0.603-1.104,1.473-2.06,2.518-2.763
		c0.458-0.309,0.579-0.93,0.271-1.388c-0.309-0.458-0.929-0.578-1.388-0.271c-1.117,0.752-2.062,1.744-2.788,2.876
		c0.079-1.578,0.649-3.132,1.631-4.369c1.171-1.475,1.913-1.907,3.78-2.203c0.546-0.086,0.918-0.599,0.831-1.145
		c-0.086-0.544-0.597-0.916-1.144-0.831c-0.931,0.148-1.682,0.354-2.345,0.66c0.474-0.665,1.061-1.25,1.748-1.703
		c0.398-0.262,0.556-0.769,0.377-1.211c-0.036-0.089-0.086-0.167-0.142-0.239c0.248,0.084,0.493,0.177,0.733,0.284
		C494.995,228.136,499.548,231.578,497.463,236.347z"/>
	<path class="st0" d="M398.293,366.766c-1.555-3.051-4.797-4.846-8.154-4.644c-1.424-2.246-3.832-3.674-6.449-3.916
		c0.753-0.595,1.437-1.284,2.009-2.081c0.688-0.96,0.688-2.249,0-3.209c-0.001,0-0.001,0-0.001,0
		c-1.95-2.719-5.107-4.342-8.446-4.342s-6.496,1.623-8.445,4.341c-0.69,0.96-0.69,2.251-0.001,3.21
		c1.921,2.678,5.014,4.285,8.297,4.333c-1.174,1.098-2.042,2.518-2.452,4.116c-1.628,0.417-3.074,1.306-4.181,2.513
		c-0.005-3.333-1.627-6.484-4.34-8.431c-0.961-0.688-2.25-0.687-3.209,0.001c-2.719,1.949-4.342,5.106-4.342,8.446
		s1.623,6.497,4.342,8.446c0.48,0.345,1.043,0.518,1.604,0.518c0.562,0,1.125-0.173,1.604-0.518
		c0.824-0.591,1.533-1.303,2.141-2.088c0.199,2.676,1.637,5.15,3.925,6.601c-0.212,3.354,1.592,6.6,4.646,8.155
		c1.223,0.623,2.547,0.925,3.862,0.925c1.967,0,3.913-0.676,5.465-1.961c3.124,1.239,6.769,0.525,9.191-1.897
		c2.423-2.423,3.136-6.066,1.897-9.19C399.4,373.505,399.85,369.819,398.293,366.766z M364.525,373.008
		c-1.849-1.395-2.946-3.588-2.946-5.903s1.099-4.509,2.946-5.903c1.848,1.395,2.945,3.588,2.945,5.903
		S366.373,371.612,364.525,373.008z M371.348,354.521c1.396-1.849,3.588-2.946,5.903-2.946s4.508,1.098,5.903,2.946
		c-1.396,1.849-3.588,2.946-5.903,2.946C374.937,357.468,372.743,356.37,371.348,354.521z M394.446,374.709
		c-0.509,0.471-0.629,1.229-0.29,1.835c1.206,2.152,0.829,4.874-0.917,6.62c-1.745,1.744-4.468,2.121-6.622,0.918
		c-0.604-0.34-1.363-0.219-1.834,0.29c-1.673,1.812-4.377,2.295-6.58,1.173c-2.199-1.12-3.4-3.594-2.919-6.013
		c0.136-0.681-0.213-1.365-0.843-1.655c-2.24-1.032-3.535-3.457-3.149-5.895c0.387-2.438,2.368-4.345,4.818-4.635
		c0.688-0.081,1.231-0.624,1.312-1.313c0.29-2.45,2.195-4.431,4.635-4.816c0.287-0.046,0.574-0.067,0.859-0.067
		c2.131,0,4.124,1.24,5.035,3.217c0.291,0.631,0.976,0.979,1.655,0.843c2.413-0.474,4.893,0.719,6.013,2.918
		C396.741,370.328,396.259,373.034,394.446,374.709z"/>
	<path class="st0" d="M156.44,70.682c-1.257-3.89-3.927-6.723-7.519-7.978c-2.915-1.018-6.134-0.824-8.884,0.487
		c-1.211-1.783-3.021-3.086-5.226-3.739c-1.67-0.496-3.424-0.452-5.067,0.125c-2.736,0.959-4.812,2.963-5.775,5.502
		c-4.469-0.712-9.067,0.75-12.296,3.979c-1.425,1.425-2.474,3.084-3.166,4.851c-2.681,0.013-5.346,0.647-7.734,1.905
		c-1.709-2.809-4.417-4.86-7.774-5.854c-2.352-0.695-4.817-0.635-7.131,0.176c-4.093,1.435-7.144,4.509-8.405,8.382
		c-6.639-1.266-13.569,0.829-18.383,5.644c-7.989,7.99-8.002,20.982-0.04,28.987c-1.887,4.615-1.85,9.811,0.137,14.423
		c2.214,5.14,6.613,8.992,12.39,10.845c1.68,0.539,3.399,0.802,5.105,0.802c4.383,0,8.666-1.734,11.901-4.97l29.182-29.182
		c0.773,0.405,1.587,0.76,2.455,1.039c1.172,0.376,2.372,0.56,3.562,0.559c3.056,0,6.042-1.208,8.297-3.464l21.76-21.759
		C156.409,78.86,157.556,74.134,156.44,70.682z M86.452,132.127c-3.696,3.696-9.053,5.01-13.97,3.433
		c-4.938-1.584-8.685-4.843-10.55-9.175c-1.789-4.153-1.694-8.871,0.258-12.944l0.478-0.996l-0.809-0.751
		c-0.222-0.206-0.443-0.412-0.658-0.626c-6.833-6.833-6.833-17.952,0-24.785c3.322-3.322,7.822-5.127,12.422-5.127
		c1.514,0,3.038,0.195,4.534,0.597l1.551,0.416l0.31-1.575c0.702-3.568,3.196-6.348,6.843-7.626c1.716-0.6,3.544-0.646,5.288-0.13
		c3.067,0.908,5.434,2.925,6.662,5.681l0.723,1.62l1.478-0.981c2.004-1.331,4.323-2.067,6.69-2.219
		c-0.643,4.207,0.586,8.647,3.717,11.941c-1.187,3.126-1.12,6.608,0.215,9.708c0.803,1.865,2.028,3.477,3.578,4.781L86.452,132.127z
		 M151.707,79.32l-21.76,21.759c-2.335,2.334-5.715,3.167-8.821,2.169c-0.389-0.125-0.766-0.266-1.13-0.423
		c-0.982-0.421-1.864-0.962-2.65-1.592c-1.293-1.037-2.309-2.329-2.957-3.833c-1.137-2.64-1.077-5.639,0.164-8.228l0.478-0.996
		l-0.81-0.751c-0.143-0.133-0.286-0.266-0.426-0.405c-2.7-2.7-3.726-6.446-3.087-9.946c0.181-0.991,0.501-1.958,0.95-2.88
		c0.53-1.089,1.235-2.113,2.138-3.016c2.124-2.123,5-3.277,7.94-3.277c0.968,0,1.942,0.125,2.898,0.381l1.551,0.416l0.31-1.575
		c0.434-2.204,1.979-3.923,4.243-4.716c1.031-0.362,2.179-0.389,3.224-0.079c1.905,0.563,3.374,1.812,4.134,3.517l0.723,1.62
		l1.477-0.981c2.238-1.484,5.095-1.838,7.639-0.949c2.684,0.938,4.691,3.093,5.652,6.068
		C154.345,73.954,153.467,77.559,151.707,79.32z"/>
	<path class="st0" d="M95.253,421.952c-1.291-1.293-3.395-1.293-4.686,0l-5.896,5.896c-1.292,1.292-1.292,3.394,0,4.686l5.896,5.896
		c0.646,0.646,1.494,0.969,2.343,0.969s1.697-0.322,2.343-0.969l5.896-5.896c1.292-1.292,1.292-3.394,0-4.686L95.253,421.952z
		 M99.028,430.413l-5.896,5.896c-0.123,0.121-0.32,0.121-0.443,0l-5.896-5.896c-0.122-0.122-0.122-0.321,0-0.443l5.896-5.896
		c0.062-0.061,0.142-0.092,0.222-0.092s0.16,0.031,0.222,0.092l5.896,5.896C99.15,430.092,99.15,430.291,99.028,430.413z"/>
	<path class="st0" d="M89.218,415.917l-5.897-5.896c-1.251-1.251-3.434-1.253-4.685,0l-5.897,5.896
		c-1.291,1.291-1.291,3.393,0,4.686l5.897,5.896c0.646,0.646,1.494,0.969,2.343,0.969c0.848,0,1.696-0.323,2.342-0.969l5.898-5.897
		C90.509,419.31,90.509,417.208,89.218,415.917z M87.097,418.481l-5.897,5.896c-0.123,0.121-0.321,0.121-0.442,0l-5.896-5.896
		c-0.123-0.123-0.123-0.322-0.001-0.444l5.898-5.897c0.075-0.075,0.161-0.092,0.22-0.092c0.06,0,0.146,0.017,0.221,0.092
		c0,0.001,0.001,0.001,0.001,0.001l5.897,5.896C87.219,418.16,87.219,418.359,87.097,418.481z"/>
	<path class="st0" d="M77.285,403.984l-5.896-5.896c-1.291-1.293-3.395-1.293-4.686,0l-5.897,5.897
		c-1.29,1.292-1.29,3.394,0.001,4.685l5.896,5.896c0.626,0.627,1.458,0.972,2.344,0.972s1.718-0.345,2.343-0.971l5.896-5.896
		C78.576,407.379,78.576,405.277,77.285,403.984z M75.164,406.549l-5.897,5.897c-0.15,0.15-0.29,0.151-0.442-0.001l-5.896-5.896
		c-0.122-0.122-0.122-0.321,0-0.443l5.896-5.896c0.062-0.061,0.142-0.092,0.222-0.092s0.16,0.031,0.222,0.092l5.896,5.896
		C75.286,406.228,75.286,406.427,75.164,406.549z"/>
	<path class="st0" d="M106.968,410.237c-1.29-1.29-3.393-1.291-4.685,0l-5.897,5.896c-1.292,1.292-1.292,3.394,0,4.686l5.897,5.896
		c0.646,0.646,1.494,0.969,2.343,0.969c0.848,0,1.696-0.323,2.342-0.969l5.897-5.896c1.292-1.292,1.292-3.394,0-4.686
		L106.968,410.237z M110.744,418.698l-5.897,5.896c-0.123,0.121-0.321,0.121-0.442,0l-5.897-5.896c-0.122-0.122-0.122-0.321,0-0.443
		l5.897-5.896c0.062-0.061,0.142-0.092,0.221-0.092c0.08,0,0.16,0.031,0.222,0.092l5.897,5.896
		C110.866,418.377,110.866,418.576,110.744,418.698z"/>
	<path class="st0" d="M84.454,408.887l5.896,5.897c0.646,0.646,1.494,0.969,2.343,0.969s1.697-0.322,2.343-0.969l5.896-5.897
		c1.292-1.291,1.292-3.394,0-4.685l-5.896-5.897c-1.291-1.293-3.395-1.293-4.686,0l-5.896,5.897
		C83.162,405.493,83.162,407.596,84.454,408.887z M86.575,406.323l5.896-5.897c0.062-0.061,0.142-0.092,0.222-0.092
		s0.16,0.031,0.222,0.092l5.896,5.897c0.122,0.122,0.122,0.32,0,0.442l-5.896,5.897c-0.123,0.121-0.32,0.121-0.443,0l-5.896-5.897
		C86.453,406.644,86.453,406.445,86.575,406.323z"/>
	<path class="st0" d="M78.419,402.852c0.646,0.646,1.494,0.969,2.343,0.969c0.848,0,1.696-0.323,2.342-0.969l5.897-5.896
		c1.292-1.292,1.292-3.394,0-4.686l-5.897-5.896c-1.29-1.29-3.393-1.291-4.685,0l-5.897,5.896c-1.292,1.292-1.292,3.394,0,4.686
		L78.419,402.852z M74.643,394.391l5.897-5.896c0.062-0.061,0.142-0.092,0.222-0.092c0.079,0,0.159,0.031,0.221,0.092l5.897,5.896
		c0.122,0.122,0.122,0.321,0,0.443l-5.897,5.896c-0.123,0.121-0.321,0.121-0.442,0l-5.897-5.896
		C74.521,394.712,74.521,394.513,74.643,394.391z"/>
	<path class="st0" d="M249.594,400.739c-0.888-1.205-1.955-2.265-3.169-3.141c-2.358-1.703-5.243-2.719-8.367-2.719
		c-2.1,0-4.089,0.465-5.888,1.28c-1.372,0.621-2.624,1.453-3.725,2.453c-2.892,2.625-4.723,6.4-4.723,10.605
		c0,5.935,3.625,11.039,8.778,13.214c1.002,0.423,2.068,0.721,3.17,0.907c0.331,0.056,0.662,0.113,1,0.145
		c0.161,0.016,0.326,0.015,0.489,0.025c0.17,0.011,0.339,0.021,0.511,0.026c0.13,0.003,0.257,0.02,0.388,0.02
		c0.034,0,0.067-0.005,0.102-0.005c0.165-0.001,0.326-0.018,0.489-0.025c0.171-0.007,0.342-0.013,0.511-0.026
		c0.163-0.013,0.327-0.02,0.489-0.038c0.338-0.037,0.67-0.092,1-0.153c4.269-0.783,7.881-3.456,9.93-7.124
		c0.181-0.325,0.344-0.661,0.5-1c0.15-0.327,0.286-0.66,0.412-1c0.119-0.322,0.233-0.646,0.329-0.979
		c0.096-0.329,0.186-0.661,0.258-1c0.07-0.328,0.117-0.664,0.164-1c0.091-0.651,0.154-1.311,0.154-1.986
		C252.395,406.043,251.346,403.117,249.594,400.739z M250.219,411.202c-0.055,0.338-0.124,0.672-0.206,1
		c-0.085,0.339-0.181,0.673-0.293,1c-0.114,0.332-0.237,0.66-0.378,0.979c-0.151,0.341-0.314,0.676-0.494,1
		c-0.191,0.344-0.397,0.678-0.619,1c-1.757,2.557-4.45,4.42-7.582,5.092c-0.328,0.07-0.663,0.121-1,0.164
		c-0.163,0.021-0.324,0.044-0.489,0.059c-0.169,0.015-0.34,0.018-0.511,0.026c-0.163,0.008-0.324,0.023-0.489,0.025
		c-0.034,0-0.067,0.005-0.102,0.005c-0.131,0-0.258-0.016-0.388-0.02c-0.171-0.005-0.341-0.014-0.511-0.026
		c-0.163-0.012-0.327-0.02-0.489-0.038c-0.338-0.038-0.672-0.088-1-0.153c-0.904-0.178-1.771-0.458-2.593-0.823
		c-4.326-1.919-7.355-6.247-7.355-11.276c0-4.222,2.134-7.953,5.378-10.178c1.925-1.321,4.243-2.104,6.738-2.148
		c0.074-0.001,0.146-0.011,0.22-0.011c0.925,0,1.822,0.111,2.689,0.304c2.381,0.532,4.502,1.751,6.147,3.441
		c2.162,2.223,3.501,5.252,3.501,8.591C250.395,409.893,250.325,410.554,250.219,411.202z"/>
	<path class="st0" d="M408.615,266.091c-0.011-0.018-0.019-0.038-0.029-0.056c-0.005,0.033-0.011,0.067-0.016,0.1
		C408.585,266.121,408.6,266.105,408.615,266.091z"/>
</g>
</svg>
