<?xml version="1.0" encoding="utf-8"?>
<!-- Generator: Adobe Illustrator 26.0.1, SVG Export Plug-In . SVG Version: 6.00 Build 0)  -->
<svg version="1.1" id="レイヤー_1" xmlns="http://www.w3.org/2000/svg" xmlns:xlink="http://www.w3.org/1999/xlink" x="0px"
	 y="0px" viewBox="0 0 500 500" style="enable-background:new 0 0 500 500;" xml:space="preserve">
<style type="text/css">
	.st0{fill:#555555;}
</style>
<g>
	<path class="st0" d="M473.734,398.383h12.586c0.829,0,1.5-0.672,1.5-1.5s-0.671-1.5-1.5-1.5h-12.586c-0.829,0-1.5,0.672-1.5,1.5
		S472.906,398.383,473.734,398.383z"/>
	<path class="st0" d="M489.129,431.96c-3.124,0-5.665,2.541-5.665,5.664c0,3.124,2.541,5.665,5.665,5.665s5.665-2.541,5.665-5.665
		C494.794,434.501,492.253,431.96,489.129,431.96z M489.129,440.289c-1.469,0-2.665-1.195-2.665-2.665
		c0-1.469,1.195-2.664,2.665-2.664c1.47,0,2.665,1.195,2.665,2.664C491.794,439.094,490.599,440.289,489.129,440.289z"/>
	<path class="st0" d="M489.911,427.535h-70.278c-5.563,0-10.089,4.525-10.089,10.089s4.526,10.09,10.089,10.09h70.278
		c5.563,0,10.089-4.526,10.089-10.09S495.474,427.535,489.911,427.535z M489.911,444.714h-70.278c-3.909,0-7.089-3.181-7.089-7.09
		s3.18-7.089,7.089-7.089h70.278c3.909,0,7.089,3.18,7.089,7.089S493.82,444.714,489.911,444.714z"/>
	<path class="st0" d="M475.334,431.96c-3.124,0-5.665,2.541-5.665,5.664c0,3.124,2.542,5.665,5.665,5.665s5.665-2.541,5.665-5.665
		C480.999,434.501,478.458,431.96,475.334,431.96z M475.334,440.289c-1.47,0-2.665-1.195-2.665-2.665
		c0-1.469,1.195-2.664,2.665-2.664c1.469,0,2.665,1.195,2.665,2.664C477.999,439.094,476.804,440.289,475.334,440.289z"/>
	<path class="st0" d="M428.793,406.216h13.645c1.184,0,2.278-0.591,2.928-1.581l9.544-14.568c0.375-0.571,0.573-1.235,0.573-1.919
		v-21.971c0-1.93-1.57-3.5-3.5-3.5h-18.028c-1.73,0-3.22,1.292-3.464,3.004l-0.236,1.648l-1.046,7.305l-2.959,20.668l-0.427,2.98
		l-0.514,3.587c-0.01,0.07-0.015,0.141-0.015,0.211l-0.001,0.632c-0.001,0.936,0.362,1.816,1.023,2.479
		S427.858,406.216,428.793,406.216z M428.294,402.189l0.589-4.114l0.476-3.321l1.864-13.021l1.046-7.305l1.192-8.323
		c0.035-0.244,0.248-0.429,0.495-0.429h18.028c0.276,0,0.5,0.225,0.5,0.5v21.971c0,0.098-0.028,0.191-0.082,0.273l-9.545,14.569
		c-0.093,0.141-0.249,0.226-0.418,0.226h-13.645c-0.18,0-0.299-0.092-0.354-0.146s-0.146-0.174-0.146-0.354L428.294,402.189z"/>
	<path class="st0" d="M473.734,408.629h12.586c0.829,0,1.5-0.672,1.5-1.5s-0.671-1.5-1.5-1.5h-12.586c-0.829,0-1.5,0.672-1.5,1.5
		S472.906,408.629,473.734,408.629z"/>
	<path class="st0" d="M473.734,403.506h12.586c0.829,0,1.5-0.672,1.5-1.5s-0.671-1.5-1.5-1.5h-12.586c-0.829,0-1.5,0.672-1.5,1.5
		S472.906,403.506,473.734,403.506z"/>
	<path class="st0" d="M433.948,431.96c-3.124,0-5.665,2.541-5.665,5.664c0,3.124,2.541,5.665,5.665,5.665s5.665-2.541,5.665-5.665
		C439.613,434.501,437.072,431.96,433.948,431.96z M433.948,440.289c-1.469,0-2.665-1.195-2.665-2.665
		c0-1.469,1.195-2.664,2.665-2.664s2.665,1.195,2.665,2.664C436.613,439.094,435.417,440.289,433.948,440.289z"/>
	<path class="st0" d="M112.888,416.416l8.055,1.62c0.231,0.046,0.464,0.069,0.694,0.069c0.923,0,1.815-0.365,2.48-1.035
		c0.831-0.838,1.183-2.027,0.941-3.182l-7.152-34.218c-0.336-1.613-1.777-2.784-3.426-2.784h-1.593h-3H92.155
		c-1.93,0-3.5,1.57-3.5,3.5v28.288c0,1.661,1.182,3.104,2.81,3.432l18.424,3.706L112.888,416.416z M91.655,408.675v-28.288
		c0-0.275,0.224-0.5,0.5-0.5h17.733h3h1.593c0.235,0,0.441,0.167,0.489,0.397l7.152,34.218c0.048,0.229-0.063,0.384-0.134,0.455
		s-0.224,0.188-0.454,0.138l-8.646-1.739l-3-0.603l-17.833-3.587C91.823,409.118,91.655,408.912,91.655,408.675z"/>
	<path class="st0" d="M250.767,265.759h-9.618c-2.481,0-4.5,2.019-4.5,4.5v4.609v3v2.009c0,1.475,0.723,2.774,1.822,3.596
		c0.75,0.56,1.671,0.904,2.678,0.904h0.322h9.295c1.634,0,3.054-0.885,3.842-2.191c0.409-0.677,0.658-1.461,0.658-2.309v-9.618
		c0-0.847-0.249-1.631-0.658-2.309C253.821,266.643,252.401,265.759,250.767,265.759z M252.267,279.877c0,0.827-0.673,1.5-1.5,1.5
		h-9.295h-0.322c-0.827,0-1.5-0.673-1.5-1.5v-4.104v-5.514c0-0.827,0.673-1.5,1.5-1.5h9.618c0.827,0,1.5,0.673,1.5,1.5V279.877z"/>
	<path class="st0" d="M250.767,239.21h-4.158h-3h-2.46c-2.481,0-4.5,2.019-4.5,4.5v9.617c0,0.246,0.034,0.483,0.073,0.718
		c0.201,1.242,0.899,2.318,1.898,3c0.722,0.493,1.592,0.782,2.53,0.782h9.618c0.928,0,1.79-0.283,2.507-0.766
		c1.201-0.809,1.993-2.181,1.993-3.734v-9.617c0-0.847-0.249-1.631-0.658-2.309C253.821,240.095,252.401,239.21,250.767,239.21z
		 M252.267,253.327c0,0.261-0.073,0.504-0.191,0.718c-0.255,0.464-0.743,0.782-1.309,0.782h-9.618c-0.566,0-1.053-0.319-1.309-0.782
		c-0.118-0.214-0.191-0.456-0.191-0.718v-9.617c0-0.827,0.673-1.5,1.5-1.5h2.46h3h4.158c0.827,0,1.5,0.673,1.5,1.5V253.327z"/>
	<path class="st0" d="M359.397,307.063c2.434,0.229,4.797,0.865,7.03,1.949c0.114,0.056,0.208,0.115,0.271,0.171
		c0.701,0.633,1.549,1.09,2.519,1.357c0.578,0.16,1.157,0.239,1.724,0.239c1.093,0,2.141-0.294,3.055-0.871
		c0.09-0.057,0.173-0.123,0.26-0.185l32.257,30.226l11.497,52.204l0.067,0.221c0.556,1.432,1.437,2.672,2.561,3.65l-2.707,19.034
		c-1.49,0.156-2.66,1.404-2.66,2.935v3.872c0,1.261,1.025,2.286,2.286,2.286h73.219c1.93,0,3.5-1.57,3.5-3.5v-27.215v-1.5v-4.123
		c0-1.93-1.57-3.5-3.5-3.5H467.08v-26.99c0-1.261-1.025-2.286-2.286-2.286h-4.552c-1.122,0-2.052,0.814-2.245,1.881h-28.762
		c-0.649,0-1.264,0.182-1.792,0.499l-6.941-24.471l-0.066-0.187c-0.041-0.094-0.09-0.181-0.134-0.272
		c-0.452-1.298-1.235-2.462-2.312-3.386l-38.7-32.773c0.208-1.272,0.03-2.532-0.535-3.648c-0.741-1.464-2.082-2.528-3.776-2.996
		c-0.97-0.271-1.932-0.312-2.858-0.129c-0.085,0.017-0.191,0.019-0.318,0.009c-2.479-0.218-4.837-0.888-7.04-1.94l0.051-0.136
		c0.42-1.126,0.376-2.349-0.123-3.442c-0.5-1.094-1.396-1.927-2.521-2.346l-16.714-6.232c-3.19-1.188-6.83-0.608-9.494,1.516
		c-0.513,0.407-0.811,1.017-0.817,1.67c-0.006,0.647,0.277,1.256,0.776,1.669c0.626,0.521,1.509,0.64,2.248,0.303
		c0.911-0.415,1.924-0.47,2.783-0.148c0.985,0.367,1.564,1.146,1.59,2.138c0.018,0.7,0.344,1.358,0.894,1.804
		c0.591,0.479,1.371,0.673,2.133,0.531c0.414-0.074,0.838-0.023,1.23,0.153c0.976,0.439,1.438,1.688,1.028,2.784l-0.117,0.314
		c-0.319,0.857-0.061,1.826,0.646,2.411l5.257,4.35l-6.747,1.034c-0.905,0.138-1.625,0.836-1.792,1.737l-0.071,0.385
		c-0.025,0.137-0.064,0.269-0.111,0.397l-3.716-11.367c-0.606-1.855-2.326-3.102-4.277-3.102h-13.82
		c-0.395,0-0.781-0.16-1.061-0.439l-28.376-28.376c-0.283-0.283-0.439-0.66-0.439-1.061v-24.255c0-2.481-2.019-4.5-4.5-4.5h-31.094
		v-61.779c0-1.93-1.57-3.5-3.5-3.5h-7c-1.93,0-3.5,1.57-3.5,3.5v10.523h-15.633V58.313h21.829h13c1.93,0,3.5-1.57,3.5-3.5v-11
		c0-1.93-1.57-3.5-3.5-3.5h-13h-23.329h-15h-76.202c-0.947,0-1.867,0.392-2.523,1.074l-10.576,11
		c-0.989,1.029-1.257,2.483-0.698,3.797c0.559,1.313,1.793,2.129,3.22,2.129h4.627v23.924c0,0.812,0.658,1.47,1.47,1.47h0.578
		v16.499c-4.593,0.738-7.885,4.768-7.67,9.408c0.215,4.643,4.041,8.446,8.71,8.66c0.144,0.006,0.288,0.01,0.431,0.01
		c3.011,0,5.8-1.445,7.525-3.922c0.464-0.666,0.301-1.583-0.366-2.046c-0.667-0.464-1.583-0.301-2.046,0.366
		c-1.228,1.762-3.25,2.754-5.41,2.656c-3.167-0.145-5.762-2.718-5.907-5.858c-0.147-3.159,2.112-5.9,5.253-6.377
		c1.402-0.212,2.419-1.395,2.419-2.812V83.707h0.578c0.812,0,1.47-0.658,1.47-1.47V58.313h73.615v115.845h-19.228v-10.523
		c0-1.93-1.57-3.5-3.5-3.5h-7c-1.93,0-3.5,1.57-3.5,3.5v10.523h-52.716v-10.523c0-1.93-1.57-3.5-3.5-3.5h-7
		c-1.93,0-3.5,1.57-3.5,3.5v93.835c-0.086,0.346-0.144,0.702-0.144,1.075v112.153H87.017c-0.031-1.904-1.584-3.444-3.494-3.444
		h-3.92c-1.93,0-3.5,1.57-3.5,3.5v7.306c-0.053-0.002-0.102-0.016-0.155-0.016H20.718c-1.93,0-3.5,1.57-3.5,3.5v3.806
		c0,0.171,0.027,0.335,0.051,0.5H6.255c-1.93,0-3.5,1.57-3.5,3.5v3.805c0,0.744,0.238,1.432,0.635,2
		c-0.398,0.568-0.635,1.256-0.635,2v3.806c0,0.744,0.238,1.432,0.635,2c-0.398,0.568-0.635,1.256-0.635,2v3.806
		c0,0.315,0.055,0.615,0.134,0.906C1.251,409.962,0,411.389,0,413.109v9.708c0,0.166,0.033,0.322,0.083,0.471v9.399
		c0,1.93,1.57,3.5,3.5,3.5h2.081c-0.214,0.928-0.378,1.875-0.447,2.851c-0.052,0.732,0.206,1.461,0.707,1.998
		c0.5,0.536,1.207,0.844,1.939,0.844h0.116c0.596,8.263,7.493,14.808,15.904,14.808s15.308-6.545,15.904-14.808h0.124
		c0.733,0,1.44-0.308,1.94-0.845s0.758-1.266,0.706-1.998c-0.069-0.975-0.233-1.922-0.447-2.85h39.288v3.38
		c0,1.086,0.69,2.006,1.652,2.366c0.622,8.237,7.508,14.754,15.902,14.754c7.331,0,13.512-4.972,15.375-11.719
		c0.021,0,0.04,0.006,0.062,0.006h55.827l-0.156,0.543c-0.416-0.033-0.841-0.024-1.27,0.045c-2.918,0.463-4.916,3.215-4.453,6.133
		c0.225,1.414,0.986,2.656,2.145,3.497c0.925,0.672,2.015,1.023,3.136,1.023c0.283,0,0.568-0.022,0.853-0.068
		c1.414-0.224,2.655-0.985,3.497-2.144c0.841-1.158,1.18-2.575,0.956-3.989c-0.284-1.785-1.426-3.222-2.935-3.966l0.308-1.074h1.779
		l13.995,7.591c0.583,0.299,1.22,0.449,1.861,0.449c0.539,0,1.079-0.105,1.591-0.319c1.1-0.459,1.933-1.362,2.294-2.509l1.426-5.115
		c0.03-0.031,0.057-0.065,0.086-0.096h24.584l-1.475,8.281l-3.218,2.064c-0.504,0.324-0.762,0.916-0.655,1.507
		c0.106,0.59,0.554,1.055,1.14,1.183l5.143,1.121c0.176,0.038,0.353,0.057,0.528,0.057c0.584,0,1.148-0.211,1.6-0.608
		c0.587-0.517,0.885-1.26,0.817-2.038l-0.163-1.881l2.505-9.686h0.698h5.302l4.024,8.636l-1.446,3.538
		c-0.227,0.556-0.098,1.188,0.329,1.609c0.283,0.28,0.657,0.429,1.039,0.429c0.193,0,0.388-0.038,0.574-0.116l4.853-2.038
		c0.722-0.304,1.241-0.914,1.424-1.675c0.184-0.76,0-1.539-0.503-2.138l-1.214-1.445l-2.553-6.8h13.752h0.104h0.592h27.936h0.104
		h28.527h0.104h19.062c0.673,1.719,2.312,2.862,4.178,2.862h18.438c0.424,0,0.835-0.081,1.236-0.196l11.257,0.642
		c0.001,0,0.001,0,0.002,0c0.065,0.003,0.129,0.005,0.194,0.005c0.764,0,1.51-0.25,2.119-0.713l9.867-7.492
		c1.061-0.805,1.577-2.168,1.315-3.474l-4.019-20.087c-0.313-1.562-1.642-2.717-3.233-2.808l-2.747-0.156v-32.553v-65.91
		c0-1.708-0.947-3.248-2.471-4.017l-5.9-2.981c0.133-0.309,0.242-0.631,0.305-0.97L359.397,307.063z M467.08,387.31h23.69
		c0.28,0,0.5,0.23,0.5,0.5v2.63h-23.69c-0.28,0-0.5-0.23-0.5-0.5V387.31z M460.355,393.806c0.422-0.595,0.645-1.294,0.645-2.023
		v-33.364c0-0.119-0.017-0.233-0.043-0.344v-0.037h3.124v26.276v5.623c0,1.93,1.57,3.5,3.5,3.5h23.693v27.215
		c0,0.275-0.224,0.5-0.5,0.5h-72.511l-0.027-3.124h1h0.007h22.464c0.306,0,0.605-0.045,0.894-0.121
		c0.36-0.024,0.693-0.176,0.948-0.427c0.408-0.255,0.776-0.576,1.055-0.987l7.279-10.725L460.355,393.806z M427.544,368.762
		l1.041-7.322l0.155-1.092c0.035-0.245,0.248-0.43,0.496-0.43h28.721v31.404c0,0.101-0.03,0.197-0.086,0.28l-8.463,12.469
		l-7.686,10.851l-20.757,0.098l2.464-17.326l0.441-3.104L427.544,368.762z M418.751,340.339c0.194-0.217,0.371-0.444,0.538-0.678
		l6.237,21.986l-4.312,30.317c-0.102-0.191-0.219-0.371-0.302-0.574l-10.768-48.895c0.859,0.315,1.771,0.485,2.708,0.485
		c0.13,0,0.26-0.003,0.391-0.01C415.375,342.867,417.332,341.933,418.751,340.339z M378.333,299.449l33.972,28.77l3.739,3.167
		c0.711,0.61,1.208,1.395,1.476,2.267c0.111,0.36,0.193,0.73,0.218,1.115c0.088,1.319-0.347,2.589-1.227,3.576
		c-0.88,0.988-2.092,1.567-3.413,1.631c-1.321,0.064-2.581-0.395-3.55-1.29l-0.307-0.287l-3.485-3.266l-29.586-27.723
		c0.242-0.517,0.425-1.072,0.529-1.663C377.125,303.619,377.676,301.504,378.333,299.449z M361.237,297.083l2.467-6.617
		c2.462,1.142,5.09,1.847,7.838,2.087c0.409,0.035,0.798,0.019,1.16-0.054c0.465-0.093,0.962-0.066,1.479,0.076
		c0.687,0.19,1.231,0.543,1.611,1.023c0.108,0.136,0.207,0.279,0.287,0.437c0.377,0.745,0.394,1.658,0.035,2.602
		c-0.085,0.24-0.161,0.484-0.244,0.726c-0.865,2.531-1.577,5.136-2.108,7.787c-0.003,0.014-0.006,0.027-0.009,0.04
		c-0.17,0.96-0.652,1.735-1.359,2.181c-0.135,0.086-0.281,0.149-0.428,0.208c-0.583,0.234-1.245,0.266-1.95,0.071
		c-0.516-0.144-0.957-0.377-1.31-0.695c-0.273-0.246-0.598-0.461-0.965-0.64l-0.001-0.001c-2.464-1.196-5.063-1.939-7.792-2.233
		L361.237,297.083z M248.305,55.313h-9.879l9.879-9.879V55.313z M227.976,43.313h18.208l-12,12h-6.208V43.313z M246.609,163.635
		c0-0.276,0.224-0.5,0.5-0.5h7c0.276,0,0.5,0.224,0.5,0.5v10.573c-0.165-0.024-0.329-0.051-0.5-0.051h-7.5V163.635z M221.086,49.653
		l3.89-3.89v7.939L221.086,49.653z M222.363,55.313h-6.937l3.538-3.538L222.363,55.313z M223.184,43.313l-4.176,4.176l-4.011-4.176
		H223.184z M212.976,45.54l3.91,4.071l-3.91,3.91V45.54z M212.976,58.313h12v19.006l-12-12.493V58.313z M212.976,69.157l12,12.493
		v19.286l-12-12.493V69.157z M212.976,92.774l12,12.493v19.286l-12-12.493V92.774z M212.976,116.39l12,12.493v19.286l-12-12.493
		V116.39z M212.976,140.007l12,12.493v19.329l-12-12.493V140.007z M212.976,163.58l10.021,10.433h-10.021V163.58z M124.697,55.313
		c-0.288,0-0.412-0.19-0.46-0.304c-0.048-0.113-0.1-0.335,0.1-0.542l10.577-11c0.093-0.098,0.225-0.153,0.36-0.153h18.91l-12,12
		H124.697z M146.426,55.313l12-12h18.758l-12,12H146.426z M169.426,55.313l12-12h18.758l-12,12H169.426z M192.426,55.313l12-12h5.55
		v12H192.426z M179.749,163.635c0-0.276,0.224-0.5,0.5-0.5h7c0.276,0,0.5,0.224,0.5,0.5v10.523h-8V163.635z M113.032,163.635
		c0-0.276,0.224-0.5,0.5-0.5h7c0.276,0,0.5,0.224,0.5,0.5v10.523h-7.5c-0.171,0-0.335,0.027-0.5,0.051V163.635z M113.032,177.652
		c0.003-0.274,0.226-0.496,0.5-0.496h7.5h3h52.716h3h8h3h52.86h3h7.5c0.274,0,0.497,0.223,0.5,0.496v7.01
		c-0.003,0.274-0.226,0.496-0.5,0.496h-7.5h-3h-52.86h-3h-8h-3h-52.716h-3h-7.5c-0.274,0-0.497-0.223-0.5-0.496V177.652z
		 M254.609,188.106v26.698h-8v-26.648h7.5C254.28,188.156,254.444,188.13,254.609,188.106z M243.609,188.156v26.648h-52.86v-26.648
		H243.609z M187.749,188.156v26.648h-8v-26.648H187.749z M176.749,188.156v26.648h-52.716v-26.648H176.749z M113.032,188.106
		c0.165,0.024,0.329,0.051,0.5,0.051h7.5v26.648h-8V188.106z M113.032,217.802h8h3h52.716h3h8h3h52.86h3h8v7.612h-27.776
		c-0.647,0-1.259,0.143-1.815,0.39h-34.269h-3h-8h-3h-52.716h-3h-8V217.802z M223.206,391.285l2.179-0.584l1.279-0.343l-0.488,2.859
		l-0.227,1.334L223.206,391.285z M225.916,398.648c-0.169,0.285-0.347,0.553-0.53,0.812c-0.877,1.243-1.912,2.159-3.052,2.534
		c-0.068,0.022-0.135,0.052-0.204,0.071c-2.221,0.595-4.404,0.164-6.315-1.243c-1.892-1.394-3.328-3.63-4.042-6.298
		c-0.015-0.055-0.024-0.11-0.038-0.165l9.342-2.503l1.258,1.498l3.052,3.635l0.273,0.325
		C225.726,397.594,225.842,398.119,225.916,398.648z M225.385,388.631l-3.052,0.818l-10.949,2.934
		c-0.024-0.245-0.045-0.488-0.055-0.731l11.004-2.948l3.052-0.818l2.949-0.79c0.033,0.091,0.077,0.171,0.108,0.263
		c0.043,0.125,0.122,0.229,0.208,0.325c-0.046,0.035-0.095,0.066-0.134,0.108L225.385,388.631z M225.385,385.815l-3.052,0.818
		l-12.301,3.296c0.032-4.136,2.623-7.39,7.056-8.577c0.997-0.268,1.966-0.397,2.894-0.397c0.822,0,1.607,0.108,2.352,0.308
		c1.129,0.305,2.154,0.839,3.052,1.571c0.803,0.654,1.507,1.46,2.078,2.424L225.385,385.815z M222.333,358.161h-91.807
		c-0.827,0-1.5-0.673-1.5-1.5v-10.658c0-0.827,0.673-1.5,1.5-1.5h91.807V358.161z M222.333,324.844h-91.807
		c-0.827,0-1.5-0.673-1.5-1.5v-10.658c0-0.827,0.673-1.5,1.5-1.5h91.807V324.844z M222.333,291.527h-91.807
		c-0.827,0-1.5-0.673-1.5-1.5v-10.659c0-0.827,0.673-1.5,1.5-1.5h91.807V291.527z M222.333,254.045h-31.584v-25.243h31.74
		c-0.092,0.358-0.156,0.726-0.156,1.112V254.045z M187.749,228.802v25.243h-8v-25.243H187.749z M176.749,228.802v25.243h-52.716
		v-25.243H176.749z M113.032,228.802h8v25.243h-6.644c-0.476,0-0.925,0.094-1.356,0.232V228.802z M87.022,373.698h22.866h3h8.175
		c0.239,0,0.445,0.17,0.491,0.404l8.612,44.383v15.573h-12.784c-0.918-2.724-2.48-5.188-4.494-7.214
		c-0.913-0.918-1.913-1.749-3-2.464c-0.557-0.366-1.13-0.71-1.726-1.015c-2.617-1.341-5.563-2.049-8.521-2.049H87.022V373.698z
		 M20.218,381.544c0-0.275,0.224-0.5,0.5-0.5h55.229c0.055,0,0.106,0.015,0.155,0.031v4.743v0.047
		c-0.053-0.002-0.102-0.016-0.155-0.016h-1.345v-0.031c-0.05,0.017-0.1,0.031-0.155,0.031H20.718c-0.276,0-0.5-0.225-0.5-0.5
		V381.544z M5.755,389.35c0-0.275,0.224-0.5,0.5-0.5h14.463h53.729c0.055,0,0.106,0.015,0.155,0.031v-0.031h1.345
		c0.053,0,0.103-0.013,0.155-0.016v0.047v4.742v0.047c-0.053-0.002-0.102-0.016-0.155-0.016h-1.345v-0.031
		c-0.05,0.017-0.1,0.031-0.155,0.031H6.255c-0.276,0-0.5-0.225-0.5-0.5V389.35z M5.755,397.154c0-0.275,0.224-0.5,0.5-0.5h68.192
		c0.055,0,0.106,0.015,0.155,0.031v-0.031h1.345c0.053,0,0.103-0.013,0.155-0.016v0.047v4.743v0.047
		c-0.053-0.002-0.102-0.016-0.155-0.016h-1.345v-0.031c-0.05,0.017-0.1,0.031-0.155,0.031H6.255c-0.276,0-0.5-0.225-0.5-0.5V397.154
		z M5.755,404.96c0-0.275,0.224-0.5,0.5-0.5h68.192c0.055,0,0.106,0.015,0.155,0.031v-0.031h1.345c0.053,0,0.103-0.013,0.155-0.016
		v0.047v4.743c-0.05,0.017-0.1,0.031-0.155,0.031H6.255c-0.276,0-0.5-0.225-0.5-0.5V404.96z M6.629,433.188H3.583
		c-0.276,0-0.5-0.225-0.5-0.5v-8.208h9.475h1.5C10.764,426.525,8.149,429.566,6.629,433.188z M23.883,453.688
		c-6.759,0-12.319-5.202-12.905-11.812c1.361-0.022,2.469-1.044,2.587-2.399c0.101-1.164,0.408-2.268,0.866-3.289
		c0.502-1.119,1.196-2.132,2.041-3c1.898-1.95,4.537-3.169,7.415-3.169c2.92,0,5.556,1.219,7.441,3.169
		c0.84,0.869,1.528,1.882,2.025,3c0.571,1.283,0.894,2.7,0.894,4.192c0,0.828,0.671,1.5,1.5,1.5h1.039
		C36.2,448.487,30.641,453.688,23.883,453.688z M37.165,438.88c-0.104-0.931-0.314-1.829-0.6-2.692
		c-0.353-1.064-0.827-2.073-1.422-3c-2.377-3.707-6.534-6.169-11.255-6.169c-4.654,0-8.837,2.458-11.237,6.169
		c-0.599,0.927-1.079,1.936-1.435,3c-0.289,0.863-0.501,1.761-0.605,2.692H8.24c0.088-0.925,0.264-1.822,0.506-2.692
		c0.291-1.048,0.684-2.053,1.175-3H9.818c0.84-1.561,1.941-2.956,3.23-4.152c0.184-0.176,0.372-0.346,0.564-0.513
		c0.079-0.066,0.157-0.132,0.237-0.197c2.738-2.282,6.241-3.664,10.038-3.664c3.831,0,7.364,1.407,10.113,3.726
		c0.021,0.018,0.042,0.035,0.064,0.053c0.257,0.219,0.507,0.446,0.75,0.682c0.22,0.207,0.434,0.419,0.642,0.639
		c0.009,0.009,0.017,0.019,0.026,0.028c0.961,1.019,1.798,2.154,2.467,3.397c0.509,0.947,0.92,1.952,1.232,3h-0.151
		c0.242,0.87,0.418,1.768,0.506,2.692H37.165z M81.398,424.479v8.708H41.145c-1.519-3.621-4.135-6.663-7.428-8.708h46.182v-0.162
		h1.5V424.479z M84.022,372.198v49.119H3v-8.208c0-0.275,0.224-0.5,0.5-0.5h74.102c0.829,0,1.5-0.672,1.5-1.5v-0.855v-6.782v-1.023
		v-6.782v-1.023v-6.781v-1.023v-6.782v-9.302c0-0.275,0.224-0.5,0.5-0.5h3.92c0.276,0,0.5,0.225,0.5,0.5V372.198z M111.5,443.897
		c-1.419,5.616-6.497,9.791-12.548,9.791c-6.754,0-12.312-5.194-12.904-11.797c0.859-0.37,1.474-1.198,1.523-2.188
		c0.287-5.8,5.068-10.344,10.885-10.344h1.182c4.713,0.01,8.745,3.005,10.25,7.229c0.349,0.98,0.563,2.025,0.617,3.116
		c0.046,0.922,0.588,1.697,1.355,2.099C111.801,442.52,111.672,443.217,111.5,443.897z M132.211,439.101h-17.379h-1.362
		c-0.084-1.025-0.29-2.012-0.583-2.96c-0.611-1.978-1.642-3.765-3-5.251c-2.541-2.781-6.195-4.521-10.247-4.53h-1.185
		c-4.683,0-8.83,2.318-11.351,5.884c-0.841,1.189-1.499,2.515-1.934,3.945c-0.284,0.933-0.484,1.905-0.566,2.913h-0.207v-2.913
		v-1.987v-9.663h2.707H99.62c2.517,0,4.924,0.577,7.153,1.715c1.129,0.579,2.166,1.306,3.115,2.131c1.164,1.011,2.174,2.185,3,3.485
		c0.718,1.131,1.31,2.345,1.719,3.633c0.348,1.063,1.319,1.777,2.417,1.777h15.188V439.101z M133.501,441.975
		c1.002-0.295,1.711-1.106,1.711-2.098v-3.374c0-1.1-0.867-1.987-2.045-2.182v-15.98c0-0.096-0.009-0.191-0.027-0.286L124.5,373.53
		c-0.319-1.641-1.764-2.832-3.436-2.832h-8.175V262.045v-3.5c0-0.226,0.054-0.439,0.144-0.631c0.239-0.511,0.755-0.869,1.356-0.869
		h6.644h3h52.716h3h8h3h31.584v17.823h-91.807c-2.481,0-4.5,2.019-4.5,4.5v10.659c0,2.481,2.019,4.5,4.5,4.5h91.807v13.658h-91.807
		c-2.481,0-4.5,2.019-4.5,4.5v10.658c0,2.481,2.019,4.5,4.5,4.5h91.807v13.659h-91.807c-2.481,0-4.5,2.019-4.5,4.5v10.658
		c0,2.481,2.019,4.5,4.5,4.5h91.807v18.055c-1.784-0.383-3.735-0.339-5.763,0.204c-6.022,1.613-9.328,6.617-8.389,12.57
		c-0.37,0.42-0.527,1.028-0.358,1.661c0.202,0.753,0.884,1.252,1.646,1.252c0.108,0,0.218-0.023,0.328-0.043
		c0.016,0.061,0.026,0.121,0.042,0.182c0.832,3.104,2.532,5.729,4.788,7.391c1.216,0.895,2.552,1.473,3.939,1.73l0.354,2.068
		c-0.749,1.365-1.161,4.213-1.062,5.743l0.139,1.328l-6.384,6.384c-0.668,0.669-1.062,1.563-1.115,2.509l-0.941,0.941
		c-0.245,0.245-0.318,0.581-0.256,0.897c-0.931,0.594-1.678,1.469-2.126,2.478l-0.753,0.119l-9.675,1.536
		c-0.094-0.086-0.205-0.157-0.332-0.203c-1.24-0.452-2.477-1.102-3.673-1.729c-2.218-1.164-4.512-2.367-7.135-2.543
		c-1.213-0.081-2.538,0.062-4.053,0.438c-4.925,1.221-9.443,4.29-12.393,8.418l-7.024,1.115c-0.463,0.073-0.87,0.323-1.146,0.702
		c-0.275,0.38-0.387,0.844-0.313,1.308c0,0,0,0,0,0l-0.005,0.001l0.006,0.003c0.075,0.461,0.323,0.866,0.702,1.14
		c0.303,0.221,0.66,0.336,1.028,0.336c0.092,0,0.186-0.008,0.279-0.022l0.579-0.092l8.013,4.219l-0.205,0.717H133.501z
		 M212.096,427.367c-0.264,0.122-0.548,0.199-0.837,0.222c-0.252,0.02-0.503,0.005-0.837-0.013l-0.127-0.008
		c-0.285-0.016-0.536-0.042-0.76-0.084c-0.071-0.013-0.122-0.041-0.188-0.059c-0.126-0.034-0.247-0.073-0.349-0.127
		c0.3-0.667,0.811-1.24,1.437-1.621L212.096,427.367z M200.016,431.451l-2.466,5.344l1.445-5.181L200.016,431.451z M193.218,428.727
		l-21.103,3.352c2.617-2.914,6.131-5.068,9.921-6.007c1.312-0.326,2.44-0.452,3.438-0.384c2.202,0.147,4.212,1.201,6.339,2.317
		C192.275,428.247,192.744,428.489,193.218,428.727z M172.465,450.405c0.248,1.563-0.821,3.037-2.384,3.285
		c-1.562,0.244-3.037-0.822-3.285-2.385c-0.12-0.757,0.062-1.516,0.512-2.137c0.451-0.62,1.116-1.028,1.873-1.148
		c0.056-0.009,0.112-0.008,0.167-0.013l-0.711,2.483c-0.152,0.531,0.155,1.085,0.686,1.236c0.092,0.026,0.185,0.039,0.276,0.039
		c0.435,0,0.835-0.286,0.961-0.725l0.724-2.529c0.011,0.008,0.023,0.013,0.033,0.02
		C171.937,448.982,172.345,449.647,172.465,450.405z M171.842,439.293l-4.916-2.588l5.926-0.941L171.842,439.293z M191.899,449.617
		c-0.174,0.551-0.592,1-1.148,1.232c-0.577,0.241-1.222,0.217-1.749-0.053l-10.734-5.822h0.07l4.051,2.133
		c1.59,0.837,3.313,1.261,5.05,1.261c1.175,0,2.356-0.194,3.508-0.584c0.584-0.198,1.136-0.452,1.667-0.736L191.899,449.617z
		 M194.029,441.975l-0.573,2.054c-0.385,0.354-0.808,0.665-1.252,0.946c-0.588,0.372-1.22,0.685-1.898,0.915
		c-2.328,0.789-4.808,0.593-6.984-0.552l-0.69-0.363l-5.698-3l-3.284-1.729l1.382-4.827l21.79-3.46L194.029,441.975z
		 M219.73,441.975h-22.369l5.156-11.169l4.456-0.708c0,0,0.001,0,0.001,0l3.309-0.526l0.129,0.008
		c0.197,0.009,0.394,0.018,0.591,0.018c0.137,0,0.275-0.004,0.413-0.015c0.995-0.079,1.944-0.52,2.676-1.197
		c0.171-0.042,0.336-0.113,0.47-0.247l0.84-0.84c1.016-0.004,1.98-0.4,2.704-1.123l1.554-1.554c0.451,0.704,1.194,1.188,2.028,1.312
		l0.166,0.617c-0.001,0.007-0.002,0.015-0.003,0.021l-0.67,4.356c-0.008,0.051-0.012,0.103-0.011,0.152l-1.466,9.778
		C219.643,441.237,219.66,441.611,219.73,441.975z M221.65,454.325c-0.028,0.109-0.038,0.224-0.028,0.336l0.178,2.053
		c0.017,0.19-0.084,0.31-0.146,0.364c-0.062,0.054-0.193,0.138-0.381,0.099l-3.913-0.854l2.525-1.62
		c0.234-0.15,0.396-0.393,0.444-0.666l1.614-9.062l0.064-0.359c0.167,0.055,0.34,0.096,0.517,0.124l1.418,0.224h0
		c0.029,0.004,0.058,0.008,0.088,0.012c0.012,0.002,0.024,0.003,0.036,0.005L221.65,454.325z M227.897,441.975l0.926-2.671
		l1.122,2.671H227.897z M233.736,443.048c-0.264,0.042-0.499,0-0.668-0.057c-0.395-0.13-0.698-0.404-0.853-0.774l-0.102-0.242
		l-2.155-5.13l-0.043-0.104l-0.005-0.013c-0.007-0.023-0.014-0.047-0.022-0.07c-0.047-0.13-0.075-0.271-0.083-0.416
		c-0.027-0.477-0.388-0.868-0.86-0.934c-0.469-0.066-0.926,0.212-1.083,0.663l-1.965,5.667l-0.006,0.018
		c-0.02,0.056-0.034,0.113-0.043,0.172c-0.075,0.473-0.387,0.868-0.835,1.06c-0.246,0.106-0.499,0.14-0.754,0.099
		c-0.001,0-0.002,0-0.003,0l-1.418-0.224c-0.098-0.015-0.187-0.04-0.269-0.072c-0.246-0.095-0.425-0.25-0.541-0.378
		c-0.093-0.103-0.162-0.218-0.22-0.338c-0.122-0.251-0.172-0.53-0.128-0.811l0.654-4.364l0.835-5.569
		c0.007-0.049,0.011-0.097,0.011-0.146l0.591-3.843c0.008-0.012,0.015-0.023,0.022-0.036c0.134-0.23,0.171-0.505,0.102-0.763
		l-0.474-1.767c-0.129-0.484-0.595-0.785-1.088-0.725c-0.019,0.002-0.036-0.004-0.055-0.001c-0.493,0.091-0.968-0.235-1.058-0.724
		l-0.13-0.76c-0.093-0.532-0.591-0.903-1.128-0.817c-0.371,0.053-0.666,0.305-0.792,0.633l-2.479,2.479
		c-0.404,0.404-0.97,0.598-1.556,0.521c-0.308-0.036-0.613,0.066-0.832,0.285l-0.449,0.449l-2.175-2.175l0.527-0.527
		c0.204-0.203,0.31-0.484,0.291-0.771c-0.036-0.552,0.153-1.065,0.532-1.444l6.721-6.721c0.213-0.213,0.319-0.512,0.288-0.812
		l-0.186-1.763c-0.108-1.677,0.53-4.279,0.871-4.695c0.2-0.227,0.286-0.532,0.235-0.83l-0.34-1.985
		c0.571-0.025,1.143-0.104,1.715-0.233c0.105-0.024,0.209-0.036,0.314-0.064c1.01-0.271,1.921-0.811,2.738-1.534
		c0.665-0.588,1.269-1.294,1.803-2.092l0.712,1.912c0.004,0.039,0.011,0.078,0.02,0.116c0.101,0.442,0.486,0.761,0.938,0.777
		c0.778,0.028,1.777,0.552,3.057,1.601c1.022,0.837,1.642,1.787,2.37,3.632c1.46,3.696,2.441,8.164,2.452,8.211l0.533,2.425
		c0.089,0.406-0.108,0.822-0.48,1.01c-0.422,0.214-0.637,0.694-0.514,1.151l0.526,1.954c0.006,0.019,0.638,1.887,0.638,3.642
		c0,1.26-0.433,2.402-0.834,2.738c-0.221,0.185-0.352,0.456-0.358,0.745l-0.217,9.889c-0.003,0.14,0.024,0.279,0.078,0.409
		c0.195,0.463,0.122,0.984-0.196,1.391c0,0.001-0.001,0.001-0.001,0.002c-0.155,0.198-0.339,0.342-0.548,0.43l-1.323,0.557
		C233.935,443.006,233.834,443.032,233.736,443.048z M239.402,452.638c0.04,0.106,0.098,0.205,0.17,0.292l1.325,1.577c0,0,0,0,0,0
		c0.123,0.146,0.109,0.302,0.089,0.382c-0.019,0.08-0.078,0.226-0.255,0.3l-3.692,1.551l1.135-2.777
		c0.105-0.258,0.098-0.548-0.02-0.801l-3.815-8.187l-0.004-0.009c0.162-0.041,0.322-0.094,0.478-0.159l1.322-0.556
		c0.033-0.015,0.066-0.029,0.1-0.044l0.288,0.768L239.402,452.638z M250.913,441.975h-12.838c0.176-0.637,0.176-1.313-0.042-1.95
		l0.204-9.301c0.826-0.98,1.201-2.615,1.201-3.948c0-2.057-0.715-4.172-0.726-4.196l-0.329-1.227
		c0.725-0.688,1.062-1.722,0.838-2.736l-0.532-2.423c-0.041-0.188-1.024-4.667-2.545-8.518c-0.706-1.789-1.48-3.23-2.962-4.444
		c-0.885-0.726-2.155-1.659-3.524-1.958l-1.066-2.863c-0.038-0.103-0.102-0.187-0.167-0.268c0.282-0.62,0.529-1.267,0.748-1.924
		h21.739V441.975z M250.913,393.218h-20.969c0.247-1.339,0.369-2.657,0.347-3.856c0.334-0.143,0.615-0.384,0.8-0.705
		c0.227-0.393,0.286-0.85,0.145-1.376c-0.154-0.576-0.59-1.004-1.12-1.175c-0.537-1.387-1.271-2.592-2.158-3.601h22.954V393.218z
		 M279.545,441.975h-22.212h-3.315v-0.314v-45.442h0.592h3h21.936V441.975z M279.545,393.218h-21.936h-3h-0.592v-10.712h0.592h3
		h21.936V393.218z M308.176,441.975h-25.527v-45.757h25.527V441.975z M308.176,393.218h-25.527v-10.712h25.527V393.218z
		 M311.281,441.975v-45.757h24.643v22.92l-9.634,2.249c-1.224,0.286-2.279,1.077-2.896,2.172c-0.618,1.094-0.749,2.406-0.361,3.602
		l4.814,14.814H311.281z M311.281,393.218v-10.712h24.643v10.712H311.281z M333.021,444.837c-0.652,0-1.225-0.416-1.426-1.036
		l-0.593-1.826l-5.115-15.742c-0.131-0.403-0.089-0.83,0.12-1.2s0.552-0.627,0.965-0.724l8.952-2.09l2.351-0.549
		c0.44-0.103,0.896-0.003,1.254,0.271l0.28,0.215l8.385,6.429l-4.4,5.564c-0.99,1.253-1.007,3.017-0.042,4.288l2.687,3.539
		l2.173,2.862H333.021z M364.451,396.218v17.17l-4.841-0.276c-1.307-0.076-2.537,0.577-3.207,1.702l-6.662,11.175l-8.387-6.43
		c-0.467-0.357-0.995-0.595-1.545-0.747v-22.595H364.451z M339.808,393.218v-10.712h24.643v10.712H339.808z M367.451,416.564
		l2.576,0.147c0.228,0.013,0.417,0.178,0.462,0.4l4.019,20.087c0.037,0.187-0.036,0.381-0.188,0.496l-6.87,5.216l-2.719,2.065
		l-0.279,0.212c-0.094,0.071-0.217,0.108-0.331,0.101l-5.476-0.312l-2.94-0.168l-3.271-0.187c-0.051-0.003-0.096-0.023-0.143-0.04
		c-0.088-0.033-0.169-0.081-0.226-0.156l-1.86-2.449l-4.065-5.354c-0.138-0.182-0.136-0.434,0.005-0.612l4.402-5.566
		c0.009-0.011,0.015-0.023,0.024-0.035c0.085-0.11,0.165-0.224,0.236-0.343l1.331-2.235l6.84-11.48
		c0.096-0.161,0.273-0.26,0.458-0.242l5.013,0.286L367.451,416.564z M363.628,313.757c0.508,0.257,0.823,0.77,0.823,1.339v64.41
		h-26.143h-0.885h-27.643c-0.018,0-0.034,0.005-0.052,0.005c-0.018-0.001-0.034-0.005-0.052-0.005h-28.527
		c-0.018,0-0.034,0.005-0.052,0.005c-0.018-0.001-0.034-0.005-0.052-0.005h-23.436h-3h-2.092c-0.018,0-0.034,0.005-0.052,0.005
		c-0.018-0.001-0.034-0.005-0.052-0.005h-27.08v-18.345v-3v-13.658v-3v-13.659v-3v-13.658v-3v-13.658v-3v-13.659v-3v-17.823v-3
		v-24.13c0-0.443,0.197-0.838,0.503-1.112c0.266-0.238,0.613-0.388,0.997-0.388h30.776h31.094c0.827,0,1.5,0.673,1.5,1.5v24.255
		c0,1.202,0.468,2.332,1.318,3.182l28.376,28.376c0.85,0.851,1.98,1.318,3.182,1.318h13.82c0.651,0,1.224,0.415,1.426,1.033
		l3.842,11.755c-0.226-0.088-0.438-0.204-0.621-0.366c-0.577-0.515-1.337-0.747-2.09-0.65c-0.7,0.096-1.32,0.487-1.699,1.075
		c-0.532,0.824-1.426,1.186-2.447,1c-0.903-0.167-1.746-0.734-2.312-1.555c-0.458-0.666-1.276-1.018-2.088-0.897
		c-0.64,0.1-1.194,0.477-1.521,1.034c-0.33,0.563-0.387,1.238-0.157,1.852c1.197,3.193,4.021,5.56,7.37,6.177l17.541,3.233
		c0.276,0.052,0.552,0.076,0.827,0.076c0.675,0,1.337-0.152,1.945-0.448L363.628,313.757z"/>
	<path class="st0" d="M447.744,431.96c-3.124,0-5.665,2.541-5.665,5.664c0,3.124,2.541,5.665,5.665,5.665s5.665-2.541,5.665-5.665
		C453.408,434.501,450.867,431.96,447.744,431.96z M447.744,440.289c-1.469,0-2.665-1.195-2.665-2.665
		c0-1.469,1.195-2.664,2.665-2.664s2.665,1.195,2.665,2.664C450.408,439.094,449.213,440.289,447.744,440.289z"/>
	<path class="st0" d="M420.153,431.96c-3.124,0-5.665,2.541-5.665,5.664c0,3.124,2.541,5.665,5.665,5.665s5.665-2.541,5.665-5.665
		C425.817,434.501,423.276,431.96,420.153,431.96z M420.153,440.289c-1.469,0-2.665-1.195-2.665-2.665
		c0-1.469,1.195-2.664,2.665-2.664s2.665,1.195,2.665,2.664C422.817,439.094,421.622,440.289,420.153,440.289z"/>
	<path class="st0" d="M461.539,431.96c-3.124,0-5.665,2.541-5.665,5.664c0,3.124,2.541,5.665,5.665,5.665s5.665-2.541,5.665-5.665
		C467.204,434.501,464.663,431.96,461.539,431.96z M461.539,440.289c-1.469,0-2.665-1.195-2.665-2.665
		c0-1.469,1.195-2.664,2.665-2.664s2.665,1.195,2.665,2.664C464.204,439.094,463.008,440.289,461.539,440.289z"/>
	<path class="st0" d="M278.357,239.21h-9.617c-2.481,0-4.5,2.019-4.5,4.5v9.617c0,2.481,2.019,4.5,4.5,4.5h9.617
		c2.481,0,4.5-2.019,4.5-4.5v-9.617C282.857,241.229,280.838,239.21,278.357,239.21z M279.857,253.327c0,0.827-0.673,1.5-1.5,1.5
		h-9.617c-0.827,0-1.5-0.673-1.5-1.5v-9.617c0-0.827,0.673-1.5,1.5-1.5h9.617c0.827,0,1.5,0.673,1.5,1.5V253.327z"/>
</g>
</svg>
